<svg width="40" height="40" viewBox="0 0 40 40" fill="none" xmlns="http://www.w3.org/2000/svg">
<circle cx="20" cy="20" r="20" fill="#107E18"/>
<path d="M21.9583 11.668H18.0417C17.175 11.668 16.4667 12.368 16.4667 13.2346V14.018C16.4667 14.8846 17.1667 15.5846 18.0333 15.5846H21.9583C22.825 15.5846 23.525 14.8846 23.525 14.018V13.2346C23.5333 12.368 22.825 11.668 21.9583 11.668Z" fill="#FEFEFE"/>
<path d="M24.3667 14.0169C24.3667 15.3419 23.2833 16.4252 21.9583 16.4252H18.0417C16.7167 16.4252 15.6333 15.3419 15.6333 14.0169C15.6333 13.5502 15.1333 13.2586 14.7167 13.4752C13.5417 14.1002 12.7417 15.3419 12.7417 16.7669V24.6086C12.7417 26.6586 14.4167 28.3336 16.4667 28.3336H23.5333C25.5833 28.3336 27.2583 26.6586 27.2583 24.6086V16.7669C27.2583 15.3419 26.4583 14.1002 25.2833 13.4752C24.8667 13.2586 24.3667 13.5502 24.3667 14.0169ZM20.3167 24.1252H16.6667C16.325 24.1252 16.0417 23.8419 16.0417 23.5002C16.0417 23.1586 16.325 22.8752 16.6667 22.8752H20.3167C20.6583 22.8752 20.9417 23.1586 20.9417 23.5002C20.9417 23.8419 20.6583 24.1252 20.3167 24.1252ZM22.5 20.7919H16.6667C16.325 20.7919 16.0417 20.5086 16.0417 20.1669C16.0417 19.8252 16.325 19.5419 16.6667 19.5419H22.5C22.8417 19.5419 23.125 19.8252 23.125 20.1669C23.125 20.5086 22.8417 20.7919 22.5 20.7919Z" fill="#FEFEFE"/>
</svg>
