<svg width="20" height="20" viewBox="0 0 20 20" fill="none" xmlns="http://www.w3.org/2000/svg">
<path d="M9.375 4.375V16.875C9.375 17.0408 9.44085 17.1997 9.55806 17.3169C9.67527 17.4342 9.83424 17.5 10 17.5C10.1658 17.5 10.3247 17.4342 10.4419 17.3169C10.5592 17.1997 10.625 17.0408 10.625 16.875V4.375C10.625 4.20924 10.5592 4.05027 10.4419 3.93306C10.3247 3.81585 10.1658 3.75 10 3.75C9.83424 3.75 9.67527 3.81585 9.55806 3.93306C9.44085 4.05027 9.375 4.20924 9.375 4.375Z" fill="currentColor"/>
<path d="M10 4.63487L15.1825 9.81862C15.2999 9.93598 15.459 10.0019 15.625 10.0019C15.791 10.0019 15.9501 9.93598 16.0675 9.81862C16.1849 9.70126 16.2508 9.54209 16.2508 9.37612C16.2508 9.21015 16.1849 9.05098 16.0675 8.93362L10.4425 3.30862C10.3844 3.25041 10.3155 3.20423 10.2395 3.17273C10.1636 3.14122 10.0822 3.125 10 3.125C9.91779 3.125 9.83639 3.14122 9.76045 3.17273C9.68452 3.20423 9.61555 3.25041 9.5575 3.30862L3.9325 8.93362C3.81514 9.05098 3.74921 9.21015 3.74921 9.37612C3.74921 9.54209 3.81514 9.70126 3.9325 9.81862C4.04985 9.93598 4.20903 10.0019 4.375 10.0019C4.54097 10.0019 4.70014 9.93598 4.8175 9.81862L10 4.63487Z" fill="currentColor"/>
</svg>
