<svg width="32" height="32" viewBox="0 0 32 32" fill="none" xmlns="http://www.w3.org/2000/svg">
<circle cx="16" cy="16" r="15" fill="#B9273A" stroke="#F1F1F2" stroke-width="2"/>
<g clip-path="url(#clip0_2243_8683)">
<path d="M11.01 12C10.268 12 9.55639 12.3103 9.03173 12.8626L7.31943 14.665C6.79476 15.2173 6.5 15.9663 6.5 16.7474C6.5 18.3738 7.75257 19.6923 9.2977 19.6923C10.0397 19.6923 10.7513 19.382 11.276 18.8297L12.4604 17.583C12.4604 17.583 12.4604 17.583 12.4604 17.583L15.9113 13.9504C16.1619 13.6866 16.5018 13.5385 16.8561 13.5385C17.4494 13.5385 17.9524 13.9455 18.1268 14.5087L19.2159 13.3623C18.7191 12.5432 17.8479 12 16.8561 12C16.1141 12 15.4025 12.3103 14.8779 12.8626L10.2425 17.7419C9.99193 18.0057 9.65208 18.1538 9.2977 18.1538C8.55976 18.1538 7.96154 17.5242 7.96154 16.7474C7.96154 16.3743 8.10231 16.0166 8.35289 15.7528L10.0652 13.9504C10.3158 13.6866 10.6556 13.5385 11.01 13.5385C11.6033 13.5385 12.1063 13.9455 12.2807 14.5088L13.3698 13.3623C12.8729 12.5432 12.0017 12 11.01 12Z" fill="white"/>
<path d="M16.0887 17.7419C15.8381 18.0057 15.4982 18.1538 15.1439 18.1538C14.5506 18.1538 14.0477 17.7469 13.8733 17.1838L12.7842 18.3302C13.2811 19.1492 14.1522 19.6923 15.1439 19.6923C15.8859 19.6923 16.5975 19.382 17.1221 18.8297L21.7575 13.9504C22.0081 13.6866 22.3479 13.5385 22.7023 13.5385C23.4403 13.5385 24.0385 14.1682 24.0385 14.9449C24.0385 15.318 23.8977 15.6757 23.6471 15.9395L21.9348 17.7419C21.6842 18.0057 21.3444 18.1538 20.99 18.1538C20.3967 18.1538 19.8938 17.7468 19.7194 17.1836L18.6303 18.3301C19.1271 19.1492 19.9983 19.6923 20.99 19.6923C21.732 19.6923 22.4436 19.382 22.9683 18.8297L24.6806 17.0273C25.2052 16.4751 25.5 15.726 25.5 14.9449C25.5 13.3185 24.2474 12 22.7023 12C21.9603 12 21.2487 12.3103 20.724 12.8626L16.0887 17.7419Z" fill="white"/>
</g>
<defs>
<clipPath id="clip0_2243_8683">
<rect width="19" height="7.69231" fill="white" transform="translate(6.5 12)"/>
</clipPath>
</defs>
</svg>
