<svg width="19" height="19" viewBox="0 0 19 19" fill="none" xmlns="http://www.w3.org/2000/svg">
<path d="M11.1641 2.11007C11.6612 1.78073 12.5036 1.54561 13.1393 2.18132L16.8182 5.86098C17.4562 6.49749 17.2203 7.33982 16.8902 7.83619C16.7115 8.10534 16.4788 8.33448 16.207 8.50911C15.9426 8.67773 15.6085 8.80519 15.2483 8.78619C15.074 8.77385 14.9003 8.7551 14.7274 8.72998L14.6735 8.72207C14.4878 8.69544 14.3011 8.67616 14.1138 8.66428C13.7148 8.64448 13.5612 8.71178 13.5122 8.75928L11.5409 10.7313C11.4776 10.7947 11.3984 10.9356 11.3382 11.2063C11.2805 11.4676 11.2551 11.789 11.2488 12.1452C11.2432 12.4872 11.2551 12.8372 11.2678 13.1744L11.2686 13.2116C11.2805 13.5465 11.2923 13.8885 11.2757 14.1569C11.2242 14.9731 10.5885 15.5739 9.96312 15.8518C9.3377 16.1289 8.44549 16.1978 7.82562 15.5771L6.04437 13.7959L2.79458 17.0457C2.74022 17.104 2.67467 17.1508 2.60184 17.1832C2.529 17.2157 2.45038 17.2331 2.37066 17.2345C2.29094 17.2359 2.21175 17.2213 2.13781 17.1914C2.06388 17.1616 1.99672 17.1171 1.94034 17.0607C1.88396 17.0043 1.83951 16.9372 1.80965 16.8632C1.77978 16.7893 1.76512 16.7101 1.76653 16.6304C1.76793 16.5507 1.78538 16.4721 1.81783 16.3992C1.85029 16.3264 1.89708 16.2608 1.95541 16.2065L5.20441 12.9567L3.42316 11.1754C2.80329 10.5548 2.87137 9.66336 3.14924 9.03794C3.42633 8.41253 4.02799 7.77682 4.84341 7.72536C5.11258 7.70873 5.45458 7.72061 5.78945 7.73248L5.82666 7.73328C6.16391 7.74515 6.51383 7.75782 6.85583 7.75228C7.21208 7.74594 7.53349 7.72061 7.79474 7.66282C8.06549 7.60265 8.20641 7.52269 8.26974 7.45936L10.241 5.48811C10.2893 5.43982 10.3566 5.28544 10.336 4.88644C10.3241 4.69919 10.3048 4.51247 10.2782 4.32674L10.2711 4.2729C10.246 4.10001 10.2272 3.92625 10.2149 3.75198C10.1951 3.39178 10.3225 3.05769 10.4904 2.79328C10.6614 2.52411 10.8981 2.28661 11.1641 2.11007Z" fill="currentColor"/>
</svg>
