<svg width="32" height="20" viewBox="0 0 32 20" fill="none" xmlns="http://www.w3.org/2000/svg">
<path d="M27.758 -0.000689506H4C2.93913 -0.000689506 1.92172 0.420738 1.17157 1.17088C0.421427 1.92103 0 2.93845 0 3.99931V15.9993C0 17.0602 0.421427 18.0776 1.17157 18.8277C1.92172 19.5779 2.93913 19.9993 4 19.9993H28C29.0609 19.9993 30.0783 19.5779 30.8284 18.8277C31.5786 18.0776 32 17.0602 32 15.9993V4.24131L23.12 13.1213C22.5539 13.6675 21.796 13.9696 21.0094 13.9624C20.2228 13.9552 19.4705 13.6393 18.9145 13.0828C18.3586 12.5263 18.0434 11.7737 18.037 10.9871C18.0305 10.2005 18.3333 9.44286 18.88 8.87731L27.758 -0.000689506ZM4 6.99931C4 6.7341 4.10536 6.47974 4.29289 6.2922C4.48043 6.10467 4.73478 5.99931 5 5.99931H9C9.26522 5.99931 9.51957 6.10467 9.70711 6.2922C9.89464 6.47974 10 6.7341 10 6.99931C10 7.26453 9.89464 7.51888 9.70711 7.70642C9.51957 7.89396 9.26522 7.99931 9 7.99931H5C4.73478 7.99931 4.48043 7.89396 4.29289 7.70642C4.10536 7.51888 4 7.26453 4 6.99931ZM4 12.9993C4 12.7341 4.10536 12.4797 4.29289 12.2922C4.48043 12.1047 4.73478 11.9993 5 11.9993H14C14.2652 11.9993 14.5196 12.1047 14.7071 12.2922C14.8946 12.4797 15 12.7341 15 12.9993C15 13.2645 14.8946 13.5189 14.7071 13.7064C14.5196 13.894 14.2652 13.9993 14 13.9993H5C4.73478 13.9993 4.48043 13.894 4.29289 13.7064C4.10536 13.5189 4 13.2645 4 12.9993ZM31.708 1.70731C31.8958 1.51954 32.0013 1.26486 32.0013 0.999311C32.0013 0.733759 31.8958 0.479084 31.708 0.29131C31.5202 0.103537 31.2656 -0.00195312 31 -0.00195312C30.7344 -0.00195313 30.4798 0.103537 30.292 0.29131L20.292 10.2913C20.1042 10.4791 19.9987 10.7338 19.9987 10.9993C19.9987 11.2649 20.1042 11.5195 20.292 11.7073C20.4798 11.8951 20.7344 12.0006 21 12.0006C21.2656 12.0006 21.5202 11.8951 21.708 11.7073L31.708 1.70731Z" fill="currentColor"/>
</svg>
