<svg xmlns="http://www.w3.org/2000/svg" width="16" height="16" viewBox="0 0 512 512" version="1.1"><path d="M 316.061 27.023 C 312.519 27.517, 306.444 28.881, 302.561 30.054 C 298.677 31.228, 291.675 34.165, 287 36.582 C 282.325 38.998, 275.156 43.793, 271.070 47.238 C 266.983 50.682, 261.225 56.650, 258.275 60.500 C 255.324 64.350, 251.129 71.100, 248.953 75.500 C 246.777 79.900, 244.037 87.100, 242.863 91.500 C 241 98.485, 240.671 103.019, 240.271 127.250 L 239.813 155 224.054 155 C 209.382 155, 208.062 155.155, 204.898 157.251 C 203.029 158.490, 200.446 161.627, 199.157 164.223 C 197.295 167.977, 196.958 169.793, 197.515 173.088 C 197.964 175.748, 199.465 178.616, 201.706 181.096 C 203.714 183.319, 206.748 185.391, 208.848 185.975 C 211.058 186.588, 229.680 186.991, 256.007 186.994 C 281.545 186.998, 300.929 186.594, 302.942 186.017 C 304.827 185.476, 307.871 183.579, 309.704 181.802 C 311.538 180.024, 313.497 176.867, 314.058 174.785 C 314.755 172.194, 314.748 169.779, 314.035 167.131 C 313.462 165.002, 312.055 162.068, 310.908 160.611 C 309.762 159.153, 307.535 157.294, 305.961 156.480 C 303.794 155.359, 299.322 155, 287.550 155 L 272 155 272.015 131.750 C 272.026 114.552, 272.423 106.832, 273.540 102.093 C 274.370 98.569, 276.501 92.962, 278.275 89.632 C 280.049 86.302, 283.975 80.895, 287 77.617 C 290.025 74.339, 295.114 69.962, 298.310 67.890 C 301.505 65.818, 307.130 63.083, 310.810 61.812 C 316.921 59.700, 319.187 59.502, 337 59.522 C 354.748 59.541, 357.074 59.749, 362.887 61.828 C 366.399 63.085, 371.799 65.711, 374.887 67.664 C 377.974 69.617, 381.791 72.404, 383.369 73.857 C 384.946 75.311, 389.349 80.634, 393.152 85.687 C 396.955 90.741, 402.414 97, 405.284 99.596 C 408.153 102.193, 413.781 106.471, 417.791 109.102 C 421.802 111.734, 428.552 115.224, 432.791 116.858 C 437.031 118.493, 444.262 120.543, 448.860 121.415 C 453.459 122.287, 460.629 123, 464.795 123 C 470.411 123, 473.474 122.465, 476.647 120.929 C 479.154 119.715, 481.857 117.350, 483.177 115.214 C 484.751 112.667, 485.429 110.018, 485.429 106.411 C 485.429 102.308, 484.859 100.503, 482.648 97.605 C 481.118 95.600, 478.763 93.236, 477.415 92.352 C 475.780 91.281, 471.219 90.479, 463.731 89.947 C 457.554 89.508, 450.656 88.485, 448.403 87.673 C 446.149 86.861, 442.324 85.199, 439.903 83.979 C 437.481 82.760, 433.328 80.128, 430.673 78.131 C 428.018 76.134, 422.715 70.377, 418.889 65.339 C 415.062 60.300, 408.832 53.253, 405.043 49.679 C 401.254 46.105, 395.082 41.371, 391.327 39.158 C 387.572 36.945, 381.575 33.989, 378 32.589 C 374.425 31.189, 368.575 29.324, 365 28.446 C 360.677 27.384, 352.470 26.728, 340.500 26.488 C 330.600 26.289, 319.602 26.530, 316.061 27.023" stroke="none" fill="#1c5e3f" fill-rule="evenodd"/><path d="M 153.355 91.039 C 151.075 91.491, 146.929 93.016, 144.142 94.428 C 141.354 95.841, 137.417 98.451, 135.392 100.229 C 133.340 102.031, 113.879 130.244, 91.418 163.981 C 65.062 203.566, 50.576 226.230, 49.538 229.500 C 48.120 233.965, 47.980 246.482, 48.225 346.500 L 48.500 458.500 51.450 464.328 C 53.194 467.771, 56.760 472.339, 60.166 475.493 C 63.610 478.682, 68.259 481.770, 71.715 483.165 L 77.500 485.500 256 485.500 L 434.500 485.500 440.285 483.165 C 443.790 481.750, 448.405 478.668, 451.996 475.343 C 455.618 471.990, 459.007 467.648, 460.711 464.178 L 463.500 458.500 463.775 346.500 C 464.020 246.482, 463.880 233.965, 462.462 229.500 C 461.424 226.229, 446.924 203.546, 420.538 163.913 C 393.386 123.132, 378.822 102.148, 375.986 99.720 C 373.668 97.736, 369.765 95.170, 367.312 94.017 C 364.859 92.864, 360.574 91.488, 357.789 90.960 C 355.005 90.432, 335.925 90, 315.389 90 L 278.051 90 276.526 92.950 C 275.686 94.573, 274.332 98.736, 273.515 102.200 C 272.427 106.813, 272.026 114.725, 272.015 131.750 L 272 155 287.550 155 C 299.322 155, 303.794 155.359, 305.961 156.480 C 307.535 157.294, 309.762 159.153, 310.908 160.611 C 312.055 162.068, 313.462 165.002, 314.035 167.131 C 314.748 169.779, 314.755 172.194, 314.058 174.785 C 313.497 176.867, 311.538 180.024, 309.704 181.802 C 307.871 183.579, 304.827 185.476, 302.942 186.017 C 300.929 186.594, 281.545 186.998, 256.007 186.994 C 229.680 186.991, 211.058 186.588, 208.848 185.975 C 206.748 185.391, 203.714 183.319, 201.706 181.096 C 199.465 178.616, 197.964 175.748, 197.515 173.088 C 196.958 169.793, 197.295 167.977, 199.157 164.223 C 200.446 161.627, 203.029 158.490, 204.898 157.251 C 208.064 155.154, 209.378 155, 224.148 155 L 240 155 240.006 131.250 C 240.009 118.188, 240.432 105.025, 240.947 102 C 241.461 98.975, 242.189 95.037, 242.566 93.250 L 243.250 90 200.375 90.110 C 176.794 90.170, 155.635 90.588, 153.355 91.039 M 191.459 241.395 C 188.686 242.069, 184.271 243.658, 181.649 244.928 C 179.027 246.197, 174.722 248.943, 172.083 251.029 C 169.444 253.115, 165.425 257.607, 163.152 261.011 C 160.878 264.415, 158.114 270.128, 157.009 273.705 C 155.726 277.861, 155 283.024, 155 288 C 155 292.976, 155.726 298.139, 157.009 302.295 C 158.114 305.872, 160.839 311.526, 163.065 314.859 C 165.290 318.191, 169.380 322.724, 172.153 324.932 C 174.925 327.140, 179.513 330.032, 182.347 331.359 C 185.181 332.685, 189.885 334.272, 192.799 334.885 C 195.714 335.498, 200.125 336, 202.602 336 C 205.079 336, 210.190 335.298, 213.959 334.441 C 217.729 333.584, 223.443 331.305, 226.657 329.376 C 229.871 327.448, 233.991 324.437, 235.813 322.685 C 237.636 320.933, 240.639 317.226, 242.487 314.446 C 244.335 311.666, 246.731 306.716, 247.812 303.446 C 248.892 300.176, 250.074 294.992, 250.438 291.926 C 250.861 288.369, 250.566 283.788, 249.623 279.268 C 248.811 275.373, 246.908 269.556, 245.395 266.343 C 243.754 262.859, 240.193 258.048, 236.572 254.425 C 232.839 250.690, 227.996 247.129, 224 245.180 C 220.425 243.437, 215.076 241.558, 212.114 241.005 C 209.151 240.452, 204.426 240.038, 201.614 240.085 C 198.801 240.132, 194.231 240.721, 191.459 241.395 M 318.500 261.532 C 317.950 261.693, 316.150 262.116, 314.500 262.472 C 312.250 262.957, 295.050 279.537, 245.680 328.810 C 206.420 367.993, 179.037 396.084, 177.820 398.426 C 176.322 401.308, 175.913 403.532, 176.280 406.790 C 176.555 409.231, 177.658 412.415, 178.732 413.864 C 179.806 415.314, 182.172 417.512, 183.990 418.750 C 186.182 420.242, 188.779 421, 191.698 421 C 194.119 421, 197.314 420.354, 198.800 419.565 C 200.285 418.775, 231.292 388.287, 267.704 351.815 C 304.541 314.917, 334.372 284.251, 334.954 282.685 C 335.529 281.137, 335.990 278.662, 335.978 277.185 C 335.966 275.708, 335.119 272.657, 334.096 270.405 C 333.019 268.033, 330.819 265.458, 328.868 264.286 C 327.016 263.173, 324.150 262.032, 322.500 261.750 C 320.850 261.469, 319.050 261.371, 318.500 261.532 M 197.001 273.123 C 195.626 273.672, 193.446 275.106, 192.155 276.310 C 190.865 277.515, 189.178 279.715, 188.405 281.200 C 187.632 282.686, 187 285.881, 187 288.302 C 187 291.221, 187.758 293.818, 189.250 296.010 C 190.488 297.828, 192.686 300.194, 194.136 301.268 C 195.585 302.342, 198.769 303.445, 201.210 303.720 C 204.477 304.088, 206.723 303.672, 209.723 302.141 C 211.966 300.997, 214.829 298.394, 216.092 296.352 C 217.620 293.879, 218.385 291.094, 218.385 288 C 218.385 284.906, 217.620 282.121, 216.092 279.648 C 214.830 277.607, 212.062 275.052, 209.939 273.969 C 207.816 272.886, 204.599 272.029, 202.790 272.063 C 200.980 272.098, 198.375 272.575, 197.001 273.123 M 293.893 349.374 C 290.260 350.657, 285.310 353.067, 282.893 354.731 C 280.477 356.394, 276.325 360.081, 273.666 362.924 C 271.007 365.768, 267.528 370.969, 265.935 374.483 C 264.342 377.997, 262.542 384.070, 261.936 387.977 C 261.112 393.287, 261.133 396.859, 262.019 402.111 C 262.694 406.116, 264.716 412.162, 266.719 416.165 C 268.740 420.205, 272.481 425.437, 275.522 428.478 C 278.563 431.519, 283.795 435.260, 287.835 437.281 C 291.838 439.284, 297.884 441.306, 301.889 441.981 C 307.141 442.867, 310.713 442.888, 316.023 442.064 C 319.930 441.458, 326.057 439.634, 329.638 438.010 C 334.215 435.935, 338.147 433.044, 342.873 428.279 C 347.041 424.077, 350.624 419.302, 352.300 415.718 C 353.787 412.538, 355.442 408.038, 355.978 405.718 C 356.513 403.398, 356.962 398.319, 356.976 394.432 C 356.989 390.544, 356.275 384.919, 355.388 381.932 C 354.502 378.944, 352.650 374.274, 351.272 371.554 C 349.894 368.833, 346.208 364.048, 343.080 360.920 C 339.952 357.792, 334.942 353.988, 331.946 352.466 C 328.951 350.944, 324.250 349.097, 321.500 348.361 C 318.750 347.626, 312.900 347.028, 308.500 347.033 C 302.694 347.040, 298.688 347.682, 293.893 349.374 M 301.367 380.918 C 299.643 381.969, 297.495 383.880, 296.592 385.164 C 295.689 386.449, 294.492 389.194, 293.932 391.266 C 293.246 393.805, 293.243 396.220, 293.923 398.682 C 294.477 400.690, 296.393 403.842, 298.180 405.686 C 299.968 407.530, 303.133 409.497, 305.215 410.058 C 307.825 410.761, 310.228 410.746, 312.955 410.012 C 315.130 409.427, 318.221 407.843, 319.825 406.494 C 321.428 405.145, 323.306 402.676, 323.996 401.009 C 324.704 399.300, 325.048 395.856, 324.785 393.116 C 324.525 390.407, 323.371 386.925, 322.179 385.251 C 321.002 383.599, 318.500 381.516, 316.619 380.623 C 314.737 379.730, 311.241 379.002, 308.849 379.004 C 306.334 379.006, 303.179 379.813, 301.367 380.918" stroke="none" fill="#0db561" fill-rule="evenodd"/><path d="M 191.459 241.395 C 188.686 242.069, 184.271 243.658, 181.649 244.928 C 179.027 246.197, 174.722 248.943, 172.083 251.029 C 169.444 253.115, 165.425 257.607, 163.152 261.011 C 160.878 264.415, 158.114 270.128, 157.009 273.705 C 155.726 277.861, 155 283.024, 155 288 C 155 292.976, 155.726 298.139, 157.009 302.295 C 158.114 305.872, 160.839 311.526, 163.065 314.859 C 165.290 318.191, 169.380 322.724, 172.153 324.932 C 174.925 327.140, 179.513 330.032, 182.347 331.359 C 185.181 332.685, 189.885 334.272, 192.799 334.885 C 195.714 335.498, 200.125 336, 202.602 336 C 205.079 336, 210.190 335.298, 213.959 334.441 C 217.729 333.584, 223.443 331.305, 226.657 329.376 C 229.871 327.448, 233.991 324.437, 235.813 322.685 C 237.636 320.933, 240.639 317.226, 242.487 314.446 C 244.335 311.666, 246.731 306.716, 247.812 303.446 C 248.892 300.176, 250.074 294.992, 250.438 291.926 C 250.861 288.369, 250.566 283.788, 249.623 279.268 C 248.811 275.373, 246.908 269.556, 245.395 266.343 C 243.754 262.859, 240.193 258.048, 236.572 254.425 C 232.839 250.690, 227.996 247.129, 224 245.180 C 220.425 243.437, 215.076 241.558, 212.114 241.005 C 209.151 240.452, 204.426 240.038, 201.614 240.085 C 198.801 240.132, 194.231 240.721, 191.459 241.395 M 318.500 261.532 C 317.950 261.693, 316.150 262.116, 314.500 262.472 C 312.250 262.957, 295.050 279.537, 245.680 328.810 C 206.420 367.993, 179.037 396.084, 177.820 398.426 C 176.322 401.308, 175.913 403.532, 176.280 406.790 C 176.555 409.231, 177.658 412.415, 178.732 413.864 C 179.806 415.314, 182.172 417.512, 183.990 418.750 C 186.182 420.242, 188.779 421, 191.698 421 C 194.119 421, 197.314 420.354, 198.800 419.565 C 200.285 418.775, 231.292 388.287, 267.704 351.815 C 304.541 314.917, 334.372 284.251, 334.954 282.685 C 335.529 281.137, 335.990 278.662, 335.978 277.185 C 335.966 275.708, 335.119 272.657, 334.096 270.405 C 333.019 268.033, 330.819 265.458, 328.868 264.286 C 327.016 263.173, 324.150 262.032, 322.500 261.750 C 320.850 261.469, 319.050 261.371, 318.500 261.532 M 197.001 273.123 C 195.626 273.672, 193.446 275.106, 192.155 276.310 C 190.865 277.515, 189.178 279.715, 188.405 281.200 C 187.632 282.686, 187 285.881, 187 288.302 C 187 291.221, 187.758 293.818, 189.250 296.010 C 190.488 297.828, 192.686 300.194, 194.136 301.268 C 195.585 302.342, 198.769 303.445, 201.210 303.720 C 204.477 304.088, 206.723 303.672, 209.723 302.141 C 211.966 300.997, 214.829 298.394, 216.092 296.352 C 217.620 293.879, 218.385 291.094, 218.385 288 C 218.385 284.906, 217.620 282.121, 216.092 279.648 C 214.830 277.607, 212.062 275.052, 209.939 273.969 C 207.816 272.886, 204.599 272.029, 202.790 272.063 C 200.980 272.098, 198.375 272.575, 197.001 273.123 M 293.893 349.374 C 290.260 350.657, 285.310 353.067, 282.893 354.731 C 280.477 356.394, 276.325 360.081, 273.666 362.924 C 271.007 365.768, 267.528 370.969, 265.935 374.483 C 264.342 377.997, 262.542 384.070, 261.936 387.977 C 261.112 393.287, 261.133 396.859, 262.019 402.111 C 262.694 406.116, 264.716 412.162, 266.719 416.165 C 268.740 420.205, 272.481 425.437, 275.522 428.478 C 278.563 431.519, 283.795 435.260, 287.835 437.281 C 291.838 439.284, 297.884 441.306, 301.889 441.981 C 307.141 442.867, 310.713 442.888, 316.023 442.064 C 319.930 441.458, 326.057 439.634, 329.638 438.010 C 334.215 435.935, 338.147 433.044, 342.873 428.279 C 347.041 424.077, 350.624 419.302, 352.300 415.718 C 353.787 412.538, 355.442 408.038, 355.978 405.718 C 356.513 403.398, 356.962 398.319, 356.976 394.432 C 356.989 390.544, 356.275 384.919, 355.388 381.932 C 354.502 378.944, 352.650 374.274, 351.272 371.554 C 349.894 368.833, 346.208 364.048, 343.080 360.920 C 339.952 357.792, 334.942 353.988, 331.946 352.466 C 328.951 350.944, 324.250 349.097, 321.500 348.361 C 318.750 347.626, 312.900 347.028, 308.500 347.033 C 302.694 347.040, 298.688 347.682, 293.893 349.374 M 301.367 380.918 C 299.643 381.969, 297.495 383.880, 296.592 385.164 C 295.689 386.449, 294.492 389.194, 293.932 391.266 C 293.246 393.805, 293.243 396.220, 293.923 398.682 C 294.477 400.690, 296.393 403.842, 298.180 405.686 C 299.968 407.530, 303.133 409.497, 305.215 410.058 C 307.825 410.761, 310.228 410.746, 312.955 410.012 C 315.130 409.427, 318.221 407.843, 319.825 406.494 C 321.428 405.145, 323.306 402.676, 323.996 401.009 C 324.704 399.300, 325.048 395.856, 324.785 393.116 C 324.525 390.407, 323.371 386.925, 322.179 385.251 C 321.002 383.599, 318.500 381.516, 316.619 380.623 C 314.737 379.730, 311.241 379.002, 308.849 379.004 C 306.334 379.006, 303.179 379.813, 301.367 380.918" stroke="none" fill="#ffffff" fill-rule="evenodd"/></svg>