<svg width="24" height="24" viewBox="0 0 24 24" fill="none" xmlns="http://www.w3.org/2000/svg">
<path d="M18.4 0.800781C19.673 0.800781 20.8939 1.30649 21.7941 2.20667C22.6943 3.10684 23.2 4.32774 23.2 5.60078V18.4008C23.2 19.6738 22.6943 20.8947 21.7941 21.7949C20.8939 22.6951 19.673 23.2008 18.4 23.2008H5.59999C4.32695 23.2008 3.10605 22.6951 2.20588 21.7949C1.3057 20.8947 0.799988 19.6738 0.799988 18.4008V5.60078C0.799988 4.32774 1.3057 3.10684 2.20588 2.20667C3.10605 1.30649 4.32695 0.800781 5.59999 0.800781H18.4ZM21.6 5.60078C21.6 4.75209 21.2628 3.93816 20.6627 3.33804C20.0626 2.73792 19.2487 2.40078 18.4 2.40078H5.59999C4.7513 2.40078 3.93736 2.73792 3.33725 3.33804C2.73713 3.93816 2.39999 4.75209 2.39999 5.60078V7.20078H21.6V5.60078ZM21.6 12.0008H2.39999V16.0008H21.6V12.0008ZM2.39999 18.4008C2.39999 19.2495 2.73713 20.0634 3.33725 20.6635C3.93736 21.2636 4.7513 21.6008 5.59999 21.6008H18.4C19.2487 21.6008 20.0626 21.2636 20.6627 20.6635C21.2628 20.0634 21.6 19.2495 21.6 18.4008V17.6008H2.39999V18.4008Z" fill="currentColor"/>
</svg>
