<svg width="20" height="20" viewBox="0 0 20 20" fill="none" xmlns="http://www.w3.org/2000/svg">
<path fill-rule="evenodd" clip-rule="evenodd" d="M6.62079 1.875H13.3791C14.5183 1.875 15.4375 1.875 16.16 1.9725C16.91 2.0725 17.5416 2.28917 18.0433 2.79C18.545 3.29167 18.76 3.92333 18.8616 4.67333C18.9583 5.39583 18.9583 6.315 18.9583 7.45417V8.37917C18.9583 9.51833 18.9583 10.4375 18.8616 11.16C18.76 11.91 18.545 12.5417 18.0433 13.0433C17.5416 13.545 16.91 13.76 16.16 13.8617C15.4375 13.9583 14.5183 13.9583 13.3791 13.9583H10.625V15.3833L15.1975 16.9067C15.2754 16.9326 15.3474 16.9736 15.4095 17.0274C15.4715 17.0812 15.5224 17.1467 15.5592 17.2201C15.5959 17.2935 15.6179 17.3735 15.6237 17.4554C15.6296 17.5373 15.6192 17.6196 15.5933 17.6975C15.5674 17.7754 15.5263 17.8475 15.4725 17.9095C15.4188 17.9716 15.3533 18.0224 15.2799 18.0592C15.2064 18.096 15.1265 18.1179 15.0446 18.1238C14.9626 18.1296 14.8804 18.1193 14.8025 18.0933L9.99996 16.4917L5.19746 18.0917C5.11877 18.1213 5.03491 18.1347 4.95092 18.1311C4.86692 18.1275 4.78451 18.1071 4.70861 18.0709C4.63271 18.0347 4.56489 17.9836 4.50921 17.9206C4.45352 17.8576 4.41112 17.7841 4.38453 17.7043C4.35795 17.6246 4.34772 17.5402 4.35448 17.4564C4.36124 17.3726 4.38483 17.2911 4.42385 17.2166C4.46287 17.1421 4.51651 17.0763 4.58156 17.023C4.64662 16.9698 4.72175 16.9302 4.80246 16.9067L9.37496 15.3817V13.9583H6.62079C5.48163 13.9583 4.56246 13.9583 3.83996 13.8617C3.08996 13.76 2.45829 13.545 1.95663 13.0433C1.45496 12.5417 1.23996 11.91 1.13913 11.16C1.04163 10.4375 1.04163 9.51833 1.04163 8.37917V7.45417C1.04163 6.315 1.04163 5.39583 1.13913 4.67333C1.23913 3.92333 1.45579 3.29167 1.95663 2.79C2.45829 2.28833 3.08996 2.07333 3.83996 1.9725C4.56246 1.875 5.48163 1.875 6.62079 1.875ZM4.00663 3.21083C3.39496 3.29333 3.07163 3.44417 2.84079 3.67417C2.60996 3.905 2.45996 4.22833 2.37746 4.84083C2.29329 5.46833 2.29163 6.30333 2.29163 7.5V8.33333C2.29163 9.52917 2.29329 10.3642 2.37746 10.9933C2.45996 11.605 2.61079 11.9283 2.84079 12.1592C3.07163 12.39 3.39496 12.54 4.00746 12.6225C4.63579 12.7067 5.47079 12.7083 6.66663 12.7083H13.3333C14.5291 12.7083 15.3633 12.7067 15.9933 12.6225C16.605 12.54 16.9283 12.3892 17.1591 12.1592C17.39 11.9283 17.54 11.605 17.6225 10.9925C17.7066 10.3633 17.7083 9.52917 17.7083 8.33333V7.5C17.7083 6.30417 17.7066 5.46917 17.6225 4.84C17.54 4.22833 17.3891 3.905 17.1591 3.67417C16.9283 3.44333 16.605 3.29333 15.9925 3.21083C15.3633 3.12667 14.5291 3.125 13.3333 3.125H6.66663C5.47079 3.125 4.63579 3.12667 4.00663 3.21083Z" fill="currentColor"/>
</svg>
