<svg width="10" height="14" viewBox="0 0 10 14" fill="none" xmlns="http://www.w3.org/2000/svg">
<path d="M5.00004 6.66732C4.55801 6.66732 4.13409 6.49172 3.82153 6.17916C3.50897 5.8666 3.33337 5.44268 3.33337 5.00065C3.33337 4.55862 3.50897 4.1347 3.82153 3.82214C4.13409 3.50958 4.55801 3.33398 5.00004 3.33398C5.44207 3.33398 5.86599 3.50958 6.17855 3.82214C6.49111 4.1347 6.66671 4.55862 6.66671 5.00065C6.66671 5.21952 6.6236 5.43625 6.53984 5.63846C6.45608 5.84067 6.33332 6.0244 6.17855 6.17916C6.02379 6.33393 5.84006 6.45669 5.63785 6.54045C5.43564 6.62421 5.21891 6.66732 5.00004 6.66732ZM5.00004 0.333984C3.76236 0.333984 2.57538 0.82565 1.70021 1.70082C0.825039 2.57599 0.333374 3.76297 0.333374 5.00065C0.333374 8.50065 5.00004 13.6673 5.00004 13.6673C5.00004 13.6673 9.66671 8.50065 9.66671 5.00065C9.66671 3.76297 9.17504 2.57599 8.29987 1.70082C7.4247 0.82565 6.23772 0.333984 5.00004 0.333984Z" fill="currentColor"/>
</svg>
