<svg width="40" height="40" viewBox="0 0 40 40" fill="none" xmlns="http://www.w3.org/2000/svg">
<circle cx="20" cy="20" r="20" fill="#F52741"/>
<path d="M21.9583 11.668H18.0417C17.175 11.668 16.4667 12.368 16.4667 13.2346V14.018C16.4667 14.8846 17.1667 15.5846 18.0333 15.5846H21.9583C22.825 15.5846 23.525 14.8846 23.525 14.018V13.2346C23.5333 12.368 22.825 11.668 21.9583 11.668Z" fill="#FEFEFE"/>
<path d="M24.3667 14.0169C24.3667 15.3419 23.2833 16.4252 21.9583 16.4252H18.0417C16.7167 16.4252 15.6333 15.3419 15.6333 14.0169C15.6333 13.5502 15.1333 13.2586 14.7167 13.4752C13.5417 14.1002 12.7417 15.3419 12.7417 16.7669V24.6086C12.7417 26.6586 14.4167 28.3336 16.4667 28.3336H23.5333C25.5833 28.3336 27.2583 26.6586 27.2583 24.6086V16.7669C27.2583 15.3419 26.4583 14.1002 25.2833 13.4752C24.8667 13.2586 24.3667 13.5502 24.3667 14.0169ZM20.3167 24.1252H16.6667C16.325 24.1252 16.0417 23.8419 16.0417 23.5002C16.0417 23.1586 16.325 22.8752 16.6667 22.8752H20.3167C20.6583 22.8752 20.9417 23.1586 20.9417 23.5002C20.9417 23.8419 20.6583 24.1252 20.3167 24.1252ZM22.5 20.7919H16.6667C16.325 20.7919 16.0417 20.5086 16.0417 20.1669C16.0417 19.8252 16.325 19.5419 16.6667 19.5419H22.5C22.8417 19.5419 23.125 19.8252 23.125 20.1669C23.125 20.5086 22.8417 20.7919 22.5 20.7919Z" fill="#FEFEFE"/>
<g clip-path="url(#clip0_3009_26921)">
<path fill-rule="evenodd" clip-rule="evenodd" d="M8.63881 8.66608C9.04796 8.25706 9.60281 8.02728 10.1814 8.02728C10.7599 8.02728 11.3147 8.25706 11.7239 8.66608L19.9995 16.9417L28.2752 8.66608C28.4764 8.4577 28.7172 8.29148 28.9834 8.17713C29.2496 8.06279 29.5359 8.0026 29.8256 8.00008C30.1153 7.99756 30.4026 8.05277 30.6707 8.16247C30.9388 8.27218 31.1824 8.43418 31.3873 8.63904C31.5922 8.8439 31.7542 9.0875 31.8639 9.35564C31.9736 9.62378 32.0288 9.91108 32.0263 10.2008C32.0237 10.4905 31.9636 10.7768 31.8492 11.043C31.7349 11.3092 31.5686 11.5499 31.3603 11.7512L23.0846 20.0268L31.3603 28.3024C31.7577 28.7139 31.9776 29.2651 31.9726 29.8371C31.9677 30.4092 31.7382 30.9564 31.3337 31.361C30.9292 31.7655 30.3819 31.9949 29.8099 31.9999C29.2378 32.0049 28.6867 31.785 28.2752 31.3875L19.9995 23.1119L11.7239 31.3875C11.3124 31.785 10.7613 32.0049 10.1892 31.9999C9.61714 31.9949 9.06991 31.7655 8.66538 31.361C8.26086 30.9564 8.0314 30.4092 8.02643 29.8371C8.02146 29.2651 8.24137 28.7139 8.63881 28.3024L16.9144 20.0268L8.63881 11.7512C8.22978 11.342 8 10.7872 8 10.2086C8 9.63009 8.22978 9.07524 8.63881 8.66608Z" fill="#292936"/>
</g>
<defs>
<clipPath id="clip0_3009_26921">
<rect width="24" height="24" fill="white" transform="translate(8 8)"/>
</clipPath>
</defs>
</svg>
