<svg width="14" height="15" viewBox="0 0 14 15" fill="none" xmlns="http://www.w3.org/2000/svg">
<path d="M7.00003 9.25C7.96836 9.25 8.7442 8.46833 8.7442 7.5L8.75003 4C8.75003 3.03167 7.96836 2.25 7.00003 2.25C6.0317 2.25 5.25003 3.03167 5.25003 4V7.5C5.25003 8.46833 6.0317 9.25 7.00003 9.25ZM10.5467 7.5C10.3017 7.5 10.0975 7.675 10.0625 7.91417C9.84669 9.43667 8.47586 10.475 7.00003 10.475C5.5242 10.475 4.15336 9.4425 3.93753 7.91417C3.91945 7.79875 3.86073 7.69359 3.77195 7.61765C3.68318 7.54171 3.57019 7.49998 3.45336 7.5C3.15003 7.5 2.9167 7.76833 2.95753 8.06583C3.22586 9.79833 4.6842 11.1575 6.4167 11.42V12.75C6.4167 13.0708 6.6792 13.3333 7.00003 13.3333C7.32086 13.3333 7.58336 13.0708 7.58336 12.75V11.42C9.31003 11.1692 10.7742 9.79833 11.0425 8.06583C11.0519 7.99521 11.0461 7.9234 11.0255 7.85521C11.0049 7.78702 10.9699 7.72402 10.923 7.67044C10.876 7.61686 10.8181 7.57394 10.7533 7.54454C10.6884 7.51515 10.6179 7.49996 10.5467 7.5Z" fill="#ED2027"/>
</svg>
