<svg width="16" height="16" viewBox="0 0 16 16" fill="none" xmlns="http://www.w3.org/2000/svg">
<path d="M7.96001 1.47332L6.35334 5.21332H4.74667C4.48001 5.21332 4.22001 5.23332 3.96667 5.28666L4.63334 3.68666L4.66001 3.62666L4.70001 3.51999C4.72001 3.47332 4.73334 3.43332 4.75334 3.39999C5.52667 1.60666 6.39334 1.04666 7.96001 1.47332Z" fill="currentColor"/>
<path d="M12.4867 5.39333L12.4734 5.38666C12.0733 5.27333 11.6667 5.21333 11.2534 5.21333H7.08002L8.58002 1.72666L8.60002 1.67999C8.69335 1.71333 8.79335 1.75999 8.89335 1.79333L10.3667 2.41333C11.1867 2.75333 11.76 3.10666 12.1134 3.53333C12.1734 3.61333 12.2267 3.68666 12.28 3.77333C12.34 3.86666 12.3867 3.95999 12.4134 4.05999C12.44 4.11999 12.46 4.17333 12.4734 4.23333C12.5733 4.57333 12.58 4.95999 12.4867 5.39333Z" fill="currentColor"/>
<path d="M12.1933 6.34665C11.8933 6.25999 11.58 6.21332 11.2533 6.21332H4.74668C4.29335 6.21332 3.86668 6.29998 3.46668 6.47332C2.30668 6.97332 1.49335 8.12665 1.49335 9.46665V10.7667C1.49335 10.9267 1.50668 11.08 1.52668 11.24C1.67335 13.36 2.80668 14.4933 4.92668 14.6333C5.08001 14.6533 5.23335 14.6667 5.40001 14.6667H10.6C13.0667 14.6667 14.3667 13.4933 14.4933 11.16C14.5 11.0333 14.5067 10.9 14.5067 10.7667V9.46665C14.5067 7.99332 13.5267 6.75332 12.1933 6.34665ZM9.66668 11.1667H6.33335C6.06001 11.1667 5.83335 10.94 5.83335 10.6667C5.83335 10.3933 6.06001 10.1667 6.33335 10.1667H9.66668C9.94001 10.1667 10.1667 10.3933 10.1667 10.6667C10.1667 10.94 9.94001 11.1667 9.66668 11.1667Z" fill="currentColor"/>
</svg>
