<svg width="14" height="14" viewBox="0 0 14 14" fill="none" xmlns="http://www.w3.org/2000/svg">
<path d="M7.00004 0.333984C10.682 0.333984 13.6667 3.31865 13.6667 7.00065C13.6667 10.6827 10.682 13.6673 7.00004 13.6673C3.31804 13.6673 0.333374 10.6827 0.333374 7.00065C0.333374 3.31865 3.31804 0.333984 7.00004 0.333984ZM6.99337 5.66732H6.33337C6.16345 5.66751 6.00002 5.73257 5.87646 5.84922C5.7529 5.96586 5.67855 6.12529 5.66859 6.29491C5.65863 6.46454 5.71382 6.63157 5.82288 6.76187C5.93194 6.89217 6.08664 6.97591 6.25537 6.99598L6.33337 7.00065V10.3273C6.33337 10.674 6.59604 10.9607 6.93337 10.9966L7.00671 11.0007H7.33337C7.47358 11.0007 7.61022 10.9565 7.72386 10.8743C7.83751 10.7922 7.92236 10.6763 7.96637 10.5432C8.01037 10.4101 8.01129 10.2665 7.96898 10.1328C7.92667 9.99914 7.84329 9.88221 7.73071 9.79865L7.66671 9.75665V6.34065C7.66671 5.99398 7.40404 5.70732 7.06671 5.67132L6.99337 5.66732ZM7.00004 3.66732C6.82323 3.66732 6.65366 3.73756 6.52864 3.86258C6.40361 3.9876 6.33337 4.15717 6.33337 4.33398C6.33337 4.5108 6.40361 4.68036 6.52864 4.80539C6.65366 4.93041 6.82323 5.00065 7.00004 5.00065C7.17685 5.00065 7.34642 4.93041 7.47144 4.80539C7.59647 4.68036 7.66671 4.5108 7.66671 4.33398C7.66671 4.15717 7.59647 3.9876 7.47144 3.86258C7.34642 3.73756 7.17685 3.66732 7.00004 3.66732Z" fill="currentColor"/>
</svg>
