<svg viewBox="0 0 49 48" fill="none" xmlns="http://www.w3.org/2000/svg">
<path fill-rule="evenodd" clip-rule="evenodd" d="M0.875 8C0.875 5.87827 1.70468 3.84344 3.18153 2.34315C4.65838 0.842854 6.66142 0 8.75 0H40.25C42.3386 0 44.3416 0.842854 45.8185 2.34315C47.2953 3.84344 48.125 5.87827 48.125 8V40C48.125 42.1217 47.2953 44.1566 45.8185 45.6569C44.3416 47.1571 42.3386 48 40.25 48H8.75C6.66142 48 4.65838 47.1571 3.18153 45.6569C1.70468 44.1566 0.875 42.1217 0.875 40V8ZM42.2188 30.828C42.2186 30.2986 42.0119 29.7908 41.6439 29.416L37.7064 25.416C37.5235 25.2297 37.3062 25.082 37.0671 24.9812C36.8279 24.8803 36.5715 24.8284 36.3125 24.8284C36.0535 24.8284 35.7971 24.8803 35.5579 24.9812C35.3188 25.082 35.1015 25.2297 34.9186 25.416L29.8314 30.584C29.6485 30.7703 29.4312 30.918 29.1921 31.0188C28.9529 31.1197 28.6965 31.1716 28.4375 31.1716C28.1785 31.1716 27.9221 31.1197 27.6829 31.0188C27.4438 30.918 27.2265 30.7703 27.0436 30.584L18.0189 21.416C17.836 21.2297 17.6187 21.082 17.3796 20.9811C17.1404 20.8803 16.884 20.8284 16.625 20.8284C16.366 20.8284 16.1096 20.8803 15.8704 20.9811C15.6313 21.082 15.414 21.2297 15.2311 21.416L7.35612 29.416C6.98809 29.7908 6.78136 30.2986 6.78125 30.828V40C6.78125 40.5304 6.98867 41.0391 7.35788 41.4142C7.7271 41.7893 8.22786 42 8.75 42H40.25C40.7721 42 41.2729 41.7893 41.6421 41.4142C42.0113 41.0391 42.2188 40.5304 42.2188 40V30.828ZM40.25 12C40.25 13.0609 39.8352 14.0783 39.0967 14.8284C38.3583 15.5786 37.3568 16 36.3125 16C35.2682 16 34.2667 15.5786 33.5283 14.8284C32.7898 14.0783 32.375 13.0609 32.375 12C32.375 10.9391 32.7898 9.92172 33.5283 9.17157C34.2667 8.42143 35.2682 8 36.3125 8C37.3568 8 38.3583 8.42143 39.0967 9.17157C39.8352 9.92172 40.25 10.9391 40.25 12Z" fill="currentColor" />
</svg>
