<svg  viewBox="0 0 12 12" fill="none" xmlns="http://www.w3.org/2000/svg">
<path d="M4.83928 2.28585H7.16071C7.16071 1.97801 7.03842 1.68278 6.82074 1.4651C6.60307 1.24743 6.30784 1.12514 6 1.12514C5.69216 1.12514 5.39692 1.24743 5.17925 1.4651C4.96157 1.68278 4.83928 1.97801 4.83928 2.28585ZM4.14285 2.28585C4.14285 1.79331 4.33852 1.32094 4.6868 0.972656C5.03508 0.624374 5.50745 0.428711 6 0.428711C6.49254 0.428711 6.96491 0.624374 7.31319 0.972656C7.66148 1.32094 7.85714 1.79331 7.85714 2.28585H10.7589C10.8513 2.28585 10.9398 2.32254 11.0051 2.38784C11.0705 2.45315 11.1071 2.54172 11.1071 2.63407C11.1071 2.72642 11.0705 2.81499 11.0051 2.88029C10.9398 2.9456 10.8513 2.98228 10.7589 2.98228H10.1507L9.58567 9.76225C9.54457 10.2555 9.31961 10.7152 8.9554 11.0504C8.5912 11.3855 8.11436 11.5715 7.61942 11.5716H4.38057C3.88563 11.5715 3.40879 11.3855 3.04459 11.0504C2.68039 10.7152 2.45543 10.2555 2.41432 9.76225L1.84928 2.98228H1.24107C1.14871 2.98228 1.06015 2.9456 0.994842 2.88029C0.929539 2.81499 0.892853 2.72642 0.892853 2.63407C0.892853 2.54172 0.929539 2.45315 0.994842 2.38784C1.06015 2.32254 1.14871 2.28585 1.24107 2.28585H4.14285ZM5.30357 4.9555C5.30357 4.86314 5.26688 4.77458 5.20158 4.70927C5.13627 4.64397 5.04771 4.60728 4.95535 4.60728C4.863 4.60728 4.77443 4.64397 4.70913 4.70927C4.64383 4.77458 4.60714 4.86314 4.60714 4.9555V8.90193C4.60714 8.99428 4.64383 9.08285 4.70913 9.14815C4.77443 9.21345 4.863 9.25014 4.95535 9.25014C5.04771 9.25014 5.13627 9.21345 5.20158 9.14815C5.26688 9.08285 5.30357 8.99428 5.30357 8.90193V4.9555ZM7.04464 4.60728C6.95229 4.60728 6.86372 4.64397 6.79841 4.70927C6.73311 4.77458 6.69642 4.86314 6.69642 4.9555V8.90193C6.69642 8.99428 6.73311 9.08285 6.79841 9.14815C6.86372 9.21345 6.95229 9.25014 7.04464 9.25014C7.13699 9.25014 7.22556 9.21345 7.29086 9.14815C7.35617 9.08285 7.39285 8.99428 7.39285 8.90193V4.9555C7.39285 4.86314 7.35617 4.77458 7.29086 4.70927C7.22556 4.64397 7.13699 4.60728 7.04464 4.60728Z" fill="currentColor"/>
</svg>
