<svg width="16" height="17" viewBox="0 0 16 17" fill="none" xmlns="http://www.w3.org/2000/svg">
<path fill-rule="evenodd" clip-rule="evenodd" d="M12.4444 0.5C11.5015 0.5 10.5971 0.874602 9.93029 1.5414C9.26349 2.20819 8.88889 3.11256 8.88889 4.05556C8.88889 4.99855 9.26349 5.90292 9.93029 6.56971C10.5971 7.23651 11.5015 7.61111 12.4444 7.61111C13.3874 7.61111 14.2918 7.23651 14.9586 6.56971C15.6254 5.90292 16 4.99855 16 4.05556C16 3.11256 15.6254 2.20819 14.9586 1.5414C14.2918 0.874602 13.3874 0.5 12.4444 0.5ZM0 12.9444C0 12.0015 0.374602 11.0971 1.0414 10.4303C1.70819 9.76349 2.61256 9.38889 3.55556 9.38889C4.49855 9.38889 5.40292 9.76349 6.06971 10.4303C6.73651 11.0971 7.11111 12.0015 7.11111 12.9444C7.11111 13.8874 6.73651 14.7918 6.06971 15.4586C5.40292 16.1254 4.49855 16.5 3.55556 16.5C2.61256 16.5 1.70819 16.1254 1.0414 15.4586C0.374602 14.7918 0 13.8874 0 12.9444ZM8.88889 10.2778C8.88889 10.042 8.98254 9.81594 9.14924 9.64924C9.31594 9.48254 9.54203 9.38889 9.77778 9.38889H15.1111C15.3469 9.38889 15.573 9.48254 15.7397 9.64924C15.9064 9.81594 16 10.042 16 10.2778V14.7222C16 15.1937 15.8127 15.6459 15.4793 15.9793C15.1459 16.3127 14.6937 16.5 14.2222 16.5H10.6667C10.1952 16.5 9.74299 16.3127 9.40959 15.9793C9.07619 15.6459 8.88889 15.1937 8.88889 14.7222V10.2778ZM0 1.38889C0 1.15314 0.0936505 0.927048 0.260349 0.760349C0.427048 0.59365 0.653141 0.5 0.888889 0.5H6.22222C6.45797 0.5 6.68406 0.59365 6.85076 0.760349C7.01746 0.927048 7.11111 1.15314 7.11111 1.38889V5.83333C7.11111 6.30483 6.92381 6.75701 6.59041 7.09041C6.25701 7.42381 5.80483 7.61111 5.33333 7.61111H1.77778C1.30628 7.61111 0.854097 7.42381 0.520699 7.09041C0.187301 6.75701 0 6.30483 0 5.83333V1.38889Z" fill="currentColor"/>
</svg>
