<svg width="22" height="22" viewBox="0 0 22 22" fill="none" xmlns="http://www.w3.org/2000/svg">
<path d="M18.3333 6.18815C19.7256 6.18815 20.8542 5.05954 20.8542 3.66732C20.8542 2.2751 19.7256 1.14648 18.3333 1.14648C16.9411 1.14648 15.8125 2.2751 15.8125 3.66732C15.8125 5.05954 16.9411 6.18815 18.3333 6.18815Z" fill="currentColor"/>
<path d="M17.4534 7.47148C16.0142 7.15982 14.8409 5.98648 14.5292 4.54732C14.41 3.98815 14.4009 3.44732 14.5017 2.93398C14.6209 2.36565 14.1992 1.83398 13.6125 1.83398H6.41671C3.88671 1.83398 1.83337 3.88732 1.83337 6.41732V12.7881C1.83337 15.3181 3.88671 17.3715 6.41671 17.3715H7.79171C8.04837 17.3715 8.37837 17.5365 8.52504 17.7381L9.90004 19.5623C10.505 20.369 11.495 20.369 12.1 19.5623L13.475 17.7381C13.6492 17.509 13.915 17.3715 14.2084 17.3715H15.5925C18.1225 17.3715 20.1667 15.3273 20.1667 12.7973V8.38815C20.1667 7.81065 19.635 7.38898 19.0667 7.49898C18.5534 7.59065 18.0125 7.59065 17.4534 7.47148ZM7.33337 11.0006C6.82004 11.0006 6.41671 10.5881 6.41671 10.084C6.41671 9.57982 6.82004 9.16732 7.33337 9.16732C7.83754 9.16732 8.25004 9.57982 8.25004 10.084C8.25004 10.5881 7.84671 11.0006 7.33337 11.0006ZM11 11.0006C10.4867 11.0006 10.0834 10.5881 10.0834 10.084C10.0834 9.57982 10.4867 9.16732 11 9.16732C11.5042 9.16732 11.9167 9.57982 11.9167 10.084C11.9167 10.5881 11.5134 11.0006 11 11.0006ZM14.6667 11.0006C14.1534 11.0006 13.75 10.5881 13.75 10.084C13.75 9.57982 14.1534 9.16732 14.6667 9.16732C15.1709 9.16732 15.5834 9.57982 15.5834 10.084C15.5834 10.5881 15.18 11.0006 14.6667 11.0006Z" fill="currentColor"/>
</svg>
