<svg width="16" height="17" viewBox="0 0 16 17" fill="none" xmlns="http://www.w3.org/2000/svg">
<path fill-rule="evenodd" clip-rule="evenodd" d="M4.44444 4.05556C4.44444 3.11256 4.81905 2.20819 5.48584 1.5414C6.15264 0.874602 7.05701 0.5 8 0.5C8.94299 0.5 9.84736 0.874602 10.5142 1.5414C11.181 2.20819 11.5556 3.11256 11.5556 4.05556C11.5556 4.99855 11.181 5.90292 10.5142 6.56971C9.84736 7.23651 8.94299 7.61111 8 7.61111C7.05701 7.61111 6.15264 7.23651 5.48584 6.56971C4.81905 5.90292 4.44444 4.99855 4.44444 4.05556ZM4.44444 9.38889C3.2657 9.38889 2.13524 9.85714 1.30175 10.6906C0.468253 11.5241 0 12.6546 0 13.8333C0 14.5406 0.280952 15.2189 0.781049 15.719C1.28115 16.219 1.95942 16.5 2.66667 16.5H13.3333C14.0406 16.5 14.7189 16.219 15.219 15.719C15.719 15.2189 16 14.5406 16 13.8333C16 12.6546 15.5317 11.5241 14.6983 10.6906C13.8648 9.85714 12.7343 9.38889 11.5556 9.38889H4.44444Z" fill="currentColor"/>
</svg>
