<svg width="18" height="17" viewBox="0 0 18 17" fill="none" xmlns="http://www.w3.org/2000/svg">
<path d="M15.7 4.18275L10.9 0.824419C9.59166 -0.0922476 7.58333 -0.0422475 6.32499 0.932753L2.14999 4.19109C1.31666 4.84109 0.658325 6.17442 0.658325 7.22442V12.9744C0.658325 15.0994 2.38333 16.8328 4.50833 16.8328H13.4917C15.6167 16.8328 17.3417 15.1078 17.3417 12.9828V7.33275C17.3417 6.20775 16.6167 4.82442 15.7 4.18275ZM9.62499 13.4994C9.62499 13.8411 9.34166 14.1244 8.99999 14.1244C8.65833 14.1244 8.37499 13.8411 8.37499 13.4994V10.9994C8.37499 10.6578 8.65833 10.3744 8.99999 10.3744C9.34166 10.3744 9.62499 10.6578 9.62499 10.9994V13.4994Z" fill="currentColor"/>
</svg>
