<svg xmlns="http://www.w3.org/2000/svg" width="19" height="19" viewBox="0 0 512 512" version="1.1"><path d="M 208.769 23.785 C 183.617 36.794, 163.373 47.773, 163.782 48.182 C 164.190 48.590, 219.644 77.261, 287.013 111.894 C 354.381 146.527, 409.927 175.253, 410.449 175.731 C 411.005 176.239, 415.358 174.482, 420.949 171.493 C 426.202 168.685, 447.455 157.642, 468.177 146.954 C 488.899 136.265, 505.774 127.451, 505.677 127.367 C 505.580 127.282, 479.175 113.825, 447 97.462 C 414.825 81.099, 358.891 52.476, 322.703 33.855 C 286.515 15.235, 256.365 0.030, 255.703 0.066 C 255.041 0.102, 233.921 10.776, 208.769 23.785 M 60.500 99.630 C 39.600 110.351, 18.812 121.008, 14.305 123.312 L 6.109 127.500 42.251 146 C 62.129 156.175, 118.386 185.052, 167.266 210.171 L 256.139 255.843 302.069 232.194 C 327.331 219.187, 348 208.274, 348 207.943 C 348 207.171, 102.731 80.964, 100.312 80.490 C 99.315 80.295, 81.400 88.908, 60.500 99.630 M 378.775 193.302 L 349.051 208.500 349.025 236.809 C 349.010 254.138, 349.363 264.894, 349.936 264.540 C 350.450 264.222, 357.714 255.533, 366.078 245.231 C 374.441 234.929, 381.868 225.868, 382.581 225.096 C 383.686 223.901, 385.717 224.384, 396.248 228.346 C 403.052 230.906, 408.929 233, 409.309 233 C 409.689 233, 410 220.625, 410 205.500 C 410 190.375, 409.663 178.023, 409.250 178.052 C 408.837 178.081, 395.124 184.943, 378.775 193.302" stroke="none" fill="#d9ac80" fill-rule="evenodd"/><path d="M 474.500 143.621 C 458 152.174, 436.738 163.237, 427.250 168.204 L 410 177.235 410 205.117 C 410 220.453, 409.689 233, 409.309 233 C 408.929 233, 403.052 230.906, 396.248 228.346 C 385.734 224.391, 383.687 223.903, 382.602 225.096 C 381.899 225.868, 376.220 232.800, 369.981 240.500 C 363.741 248.200, 356.581 256.954, 354.068 259.954 L 349.500 265.407 349 236.840 L 348.500 208.272 302.500 231.967 L 256.500 255.662 256.246 383.915 C 256.089 463.164, 256.350 512.041, 256.927 511.835 C 257.442 511.651, 313.693 482.930, 381.931 448.012 L 506 384.524 506 256.262 C 506 185.718, 505.663 128.016, 505.250 128.035 C 504.837 128.054, 491 135.068, 474.500 143.621" stroke="none" fill="#a67e4f" fill-rule="evenodd"/><path d="M 6.008 256.240 L 6.016 384.500 28.258 395.880 C 40.491 402.138, 60.062 412.151, 71.750 418.130 C 96.617 430.850, 128.768 447.309, 155.500 461.002 C 165.950 466.355, 187.100 477.159, 202.500 485.011 C 217.900 492.863, 236.035 502.148, 242.801 505.644 C 249.566 509.140, 255.303 512, 255.551 512 C 255.798 512, 256 454.442, 256 384.092 L 256 256.185 213.750 234.452 C 141.238 197.152, 24.753 137.398, 15.164 132.582 L 6 127.980 6.008 256.240" stroke="none" fill="#926e43" fill-rule="evenodd"/><path d="M 148 55.118 C 140.575 59.022, 126.683 66.134, 117.129 70.924 L 99.758 79.632 224.629 143.944 L 349.500 208.256 379.957 192.758 C 396.708 184.234, 410.527 176.864, 410.665 176.380 C 410.887 175.606, 165.547 48.872, 162.640 48.260 C 162.013 48.128, 155.425 51.214, 148 55.118" stroke="none" fill="#f2d3ba" fill-rule="evenodd"/></svg>