<svg width="14" height="14" viewBox="0 0 14 14" fill="none" xmlns="http://www.w3.org/2000/svg">
<path d="M9.47918 13.125C10.043 13.125 10.5 12.6679 10.5 12.1041C10.5 11.5404 10.043 11.0833 9.47918 11.0833C8.91539 11.0833 8.45834 11.5404 8.45834 12.1041C8.45834 12.6679 8.91539 13.125 9.47918 13.125Z" fill="currentColor"/>
<path d="M4.81249 13.125C5.37628 13.125 5.83332 12.6679 5.83332 12.1041C5.83332 11.5404 5.37628 11.0833 4.81249 11.0833C4.2487 11.0833 3.79166 11.5404 3.79166 12.1041C3.79166 12.6679 4.2487 13.125 4.81249 13.125Z" fill="currentColor"/>
<path d="M2.82332 2.29835L2.70666 3.72752C2.68332 4.00169 2.89916 4.22919 3.17332 4.22919H12.1042C12.3492 4.22919 12.5533 4.04252 12.5708 3.79752C12.6467 2.76502 11.8592 1.92502 10.8267 1.92502H3.65749C3.59916 1.66835 3.48249 1.42335 3.30166 1.21919C3.00999 0.91002 2.60166 0.729187 2.18166 0.729187H1.16666C0.92749 0.729187 0.729156 0.92752 0.729156 1.16669C0.729156 1.40585 0.92749 1.60419 1.16666 1.60419H2.18166C2.36249 1.60419 2.53166 1.68002 2.65416 1.80835C2.77666 1.94252 2.83499 2.11752 2.82332 2.29835Z" fill="currentColor"/>
<path d="M11.9642 5.10419H3.01584C2.77084 5.10419 2.57251 5.29085 2.54918 5.53002L2.33918 8.06752C2.25751 9.06502 3.03918 9.91669 4.03668 9.91669H10.5233C11.3983 9.91669 12.1683 9.19919 12.2325 8.32419L12.425 5.60002C12.4483 5.33169 12.2383 5.10419 11.9642 5.10419Z" fill="currentColor"/>
</svg>
