<svg width="32" height="20" viewBox="0 0 32 20" fill="none" xmlns="http://www.w3.org/2000/svg">
<path d="M31.7635 4.47312C30.9812 1.36201 28.0523 0 23.9773 0H8.00455C3.20182 0 0 1.89247 0 6.30824V13.6918C0 16.8746 1.65549 18.7384 4.38431 19.5412C4.78454 19.6559 5.22115 19.7563 5.67595 19.8136C6.40364 19.9427 7.1859 20 8.00455 20H23.9955C28.7982 20 32 18.1075 32 13.6918V6.30824C32 5.63441 31.9272 5.03226 31.7635 4.47312ZM6.9494 12.1577C6.9494 12.7455 6.33087 13.233 5.58499 13.233C4.83911 13.233 4.22058 12.7455 4.22058 12.1577V7.85663C4.22058 7.26882 4.83911 6.78136 5.58499 6.78136C6.33087 6.78136 6.9494 7.26882 6.9494 7.85663V12.1577ZM15.9909 13.7921C13.3348 13.7921 11.1882 12.1004 11.1882 10.0072C11.1882 7.91398 13.3348 6.22222 15.9909 6.22222C18.647 6.22222 20.7936 7.91398 20.7936 10.0072C20.7936 12.1004 18.647 13.7921 15.9909 13.7921ZM27.743 12.1577C27.743 12.7455 27.1245 13.233 26.3786 13.233C25.6327 13.233 25.0142 12.7455 25.0142 12.1577V7.85663C25.0142 7.26882 25.6327 6.78136 26.3786 6.78136C27.1245 6.78136 27.743 7.26882 27.743 7.85663V12.1577Z" fill="currentColor"/>
</svg>
