<svg width="14" height="18" viewBox="0 0 14 18" fill="none" xmlns="http://www.w3.org/2000/svg">
<path d="M12.0167 9.2763L11 8.25963C10.7583 8.0513 10.6167 7.74297 10.6083 7.4013C10.5917 7.0263 10.7417 6.6513 11.0167 6.3763L12.0167 5.3763C12.8833 4.50964 13.2083 3.6763 12.9333 3.01797C12.6667 2.36797 11.8417 2.00964 10.625 2.00964H1.91667V1.29297C1.91667 0.951302 1.63334 0.667969 1.29167 0.667969C0.950005 0.667969 0.666672 0.951302 0.666672 1.29297V16.7096C0.666672 17.0513 0.950005 17.3346 1.29167 17.3346C1.63334 17.3346 1.91667 17.0513 1.91667 16.7096V12.643H10.625C11.825 12.643 12.6333 12.2763 12.9083 11.618C13.1833 10.9596 12.8667 10.1346 12.0167 9.2763Z" fill="currentColor"/>
</svg>
