<svg width="18" height="19" viewBox="0 0 18 19" fill="none" xmlns="http://www.w3.org/2000/svg">
<path d="M11.3333 10.668C12.4384 10.668 13.4982 11.107 14.2796 11.8884C15.061 12.6698 15.5 13.7296 15.5 14.8346V15.668C15.5 16.11 15.3244 16.5339 15.0118 16.8465C14.6993 17.159 14.2754 17.3346 13.8333 17.3346H2.16667C1.72464 17.3346 1.30072 17.159 0.988155 16.8465C0.675595 16.5339 0.5 16.11 0.5 15.668V14.8346C0.5 13.7296 0.938987 12.6698 1.72039 11.8884C2.50179 11.107 3.5616 10.668 4.66667 10.668H11.3333ZM14.6667 5.66797C14.8877 5.66797 15.0996 5.75577 15.2559 5.91205C15.4122 6.06833 15.5 6.28029 15.5 6.5013V7.33464H16.3333C16.5543 7.33464 16.7663 7.42243 16.9226 7.57871C17.0789 7.73499 17.1667 7.94695 17.1667 8.16797C17.1667 8.38898 17.0789 8.60094 16.9226 8.75722C16.7663 8.9135 16.5543 9.0013 16.3333 9.0013H15.5V9.83463C15.5 10.0556 15.4122 10.2676 15.2559 10.4239C15.0996 10.5802 14.8877 10.668 14.6667 10.668C14.4457 10.668 14.2337 10.5802 14.0774 10.4239C13.9211 10.2676 13.8333 10.0556 13.8333 9.83463V9.0013H13C12.779 9.0013 12.567 8.9135 12.4107 8.75722C12.2545 8.60094 12.1667 8.38898 12.1667 8.16797C12.1667 7.94695 12.2545 7.73499 12.4107 7.57871C12.567 7.42243 12.779 7.33464 13 7.33464H13.8333V6.5013C13.8333 6.28029 13.9211 6.06833 14.0774 5.91205C14.2337 5.75577 14.4457 5.66797 14.6667 5.66797ZM8 0.667969C9.10507 0.667969 10.1649 1.10696 10.9463 1.88836C11.7277 2.66976 12.1667 3.72957 12.1667 4.83464C12.1667 5.9397 11.7277 6.99951 10.9463 7.78091C10.1649 8.56231 9.10507 9.0013 8 9.0013C6.89493 9.0013 5.83512 8.56231 5.05372 7.78091C4.27232 6.99951 3.83333 5.9397 3.83333 4.83464C3.83333 3.72957 4.27232 2.66976 5.05372 1.88836C5.83512 1.10696 6.89493 0.667969 8 0.667969Z" fill="currentColor"/>
</svg>
