<svg width="24" height="24" viewBox="0 0 24 24" fill="none" xmlns="http://www.w3.org/2000/svg">
<path d="M5.59999 0.800781C4.32695 0.800781 3.10605 1.30649 2.20588 2.20667C1.3057 3.10684 0.799988 4.32774 0.799988 5.60078V18.4008C0.799988 19.6738 1.3057 20.8947 2.20588 21.7949C3.10605 22.6951 4.32695 23.2008 5.59999 23.2008H18.4C19.673 23.2008 20.8939 22.6951 21.7941 21.7949C22.6943 20.8947 23.2 19.6738 23.2 18.4008V5.60078C23.2 4.32774 22.6943 3.10684 21.7941 2.20667C20.8939 1.30649 19.673 0.800781 18.4 0.800781H5.59999ZM12 21.6008V2.40078H18.4C19.2487 2.40078 20.0626 2.73792 20.6627 3.33804C21.2628 3.93816 21.6 4.75209 21.6 5.60078V18.4008C21.6 19.2495 21.2628 20.0634 20.6627 20.6635C20.0626 21.2636 19.2487 21.6008 18.4 21.6008H12Z" fill="currentColor"/>
</svg>
