<svg width="16" height="16" viewBox="0 0 16 16" fill="none" xmlns="http://www.w3.org/2000/svg">
<path d="M14.6666 7.50001H13.3066C13.0666 4.96001 11.04 2.92668 8.49998 2.69334V1.33334C8.49998 1.06001 8.27331 0.833344 7.99998 0.833344C7.72665 0.833344 7.49998 1.06001 7.49998 1.33334V2.69334C4.95998 2.93334 2.92665 4.96001 2.69331 7.50001H1.33331C1.05998 7.50001 0.833313 7.72668 0.833313 8.00001C0.833313 8.27334 1.05998 8.50001 1.33331 8.50001H2.69331C2.93331 11.04 4.95998 13.0733 7.49998 13.3067V14.6667C7.49998 14.94 7.72665 15.1667 7.99998 15.1667C8.27331 15.1667 8.49998 14.94 8.49998 14.6667V13.3067C11.04 13.0667 13.0733 11.04 13.3066 8.50001H14.6666C14.94 8.50001 15.1666 8.27334 15.1666 8.00001C15.1666 7.72668 14.94 7.50001 14.6666 7.50001ZM7.99998 10.08C6.85331 10.08 5.91998 9.14668 5.91998 8.00001C5.91998 6.85334 6.85331 5.92001 7.99998 5.92001C9.14665 5.92001 10.08 6.85334 10.08 8.00001C10.08 9.14668 9.14665 10.08 7.99998 10.08Z" fill="currentColor"/>
</svg>
