<svg width="12" height="18" viewBox="0 0 12 18" fill="none" xmlns="http://www.w3.org/2000/svg">
<path d="M3.99649 8.50282C4.52784 9.03417 5.24851 9.33268 5.99996 9.33268C6.37204 9.33268 6.74047 9.2594 7.08423 9.11701C7.42799 8.97462 7.74033 8.76592 8.00343 8.50282C8.26653 8.23972 8.47523 7.92737 8.61762 7.58362C8.76001 7.23986 8.83329 6.87143 8.83329 6.49935C8.83329 5.7479 8.53478 5.02723 8.00343 4.49588C7.47208 3.96453 6.75141 3.66602 5.99996 3.66602C5.24851 3.66602 4.52784 3.96453 3.99649 4.49588C3.46514 5.02723 3.16663 5.7479 3.16663 6.49935C3.16663 7.2508 3.46514 7.97147 3.99649 8.50282ZM5.99996 16.1825C5.90052 16.0634 5.79015 15.9296 5.67085 15.7826C5.13363 15.1207 4.41858 14.1948 3.70502 13.1372C2.99001 12.0774 2.28576 10.899 1.76254 9.73112C1.23491 8.55339 0.916626 7.44135 0.916626 6.49935C0.916626 5.15117 1.45219 3.8582 2.4055 2.90489C3.35881 1.95158 4.65178 1.41602 5.99996 1.41602C7.34814 1.41602 8.64111 1.95158 9.59442 2.90489C10.5477 3.8582 11.0833 5.15117 11.0833 6.49935C11.0833 7.44135 10.765 8.55339 10.2374 9.73112C9.71416 10.899 9.00991 12.0774 8.2949 13.1372C7.58134 14.1948 6.86629 15.1207 6.32908 15.7826C6.20977 15.9296 6.0994 16.0634 5.99996 16.1825Z" stroke="currentColor" stroke-width="1.5"/>
</svg>
