<svg width="14" height="14" viewBox="0 0 14 14" fill="none" xmlns="http://www.w3.org/2000/svg">
<path d="M9.91663 1.16602H4.08329C2.47329 1.16602 1.16663 2.46685 1.16663 4.07102V7.55935V8.14268C1.16663 9.74685 2.47329 11.0477 4.08329 11.0477H4.95829C5.11579 11.0477 5.32579 11.1527 5.42496 11.281L6.29996 12.4418C6.68496 12.9552 7.31496 12.9552 7.69996 12.4418L8.57496 11.281C8.68579 11.1352 8.86079 11.0477 9.04163 11.0477H9.91663C11.5266 11.0477 12.8333 9.74685 12.8333 8.14268V4.07102C12.8333 2.46685 11.5266 1.16602 9.91663 1.16602ZM4.66663 6.99935C4.33996 6.99935 4.08329 6.73685 4.08329 6.41602C4.08329 6.09518 4.34579 5.83268 4.66663 5.83268C4.98746 5.83268 5.24996 6.09518 5.24996 6.41602C5.24996 6.73685 4.99329 6.99935 4.66663 6.99935ZM6.99996 6.99935C6.67329 6.99935 6.41663 6.73685 6.41663 6.41602C6.41663 6.09518 6.67913 5.83268 6.99996 5.83268C7.32079 5.83268 7.58329 6.09518 7.58329 6.41602C7.58329 6.73685 7.32663 6.99935 6.99996 6.99935ZM9.33329 6.99935C9.00663 6.99935 8.74996 6.73685 8.74996 6.41602C8.74996 6.09518 9.01246 5.83268 9.33329 5.83268C9.65413 5.83268 9.91663 6.09518 9.91663 6.41602C9.91663 6.73685 9.65996 6.99935 9.33329 6.99935Z" fill="currentColor"/>
</svg>
