<svg width="18" height="19" viewBox="0 0 18 19" fill="none" xmlns="http://www.w3.org/2000/svg">
<path d="M2.21663 16.31C1.18502 15.1756 0.704977 13.855 0.776494 12.3482C0.84801 10.8414 1.45097 9.5722 2.58539 8.54059L10.3536 1.47631C11.1675 0.736243 12.1277 0.392469 13.2342 0.444989C14.3408 0.497508 15.2641 0.930677 16.0041 1.74449C16.7442 2.55831 17.088 3.5185 17.0355 4.62505C16.9829 5.73161 16.5498 6.65492 15.736 7.39499L8.70753 13.7865C8.18965 14.2574 7.58932 14.4767 6.90655 14.4443C6.22378 14.4119 5.64692 14.1367 5.17597 13.6189C4.70502 13.101 4.48575 12.5007 4.51815 11.8179C4.55056 11.1351 4.8257 10.5583 5.34359 10.0873L11.8171 4.20041C11.9774 4.05464 12.1576 3.98673 12.3577 3.9967C12.5578 4.00667 12.7308 4.09133 12.8766 4.25069C13.0224 4.41099 13.0903 4.59119 13.0803 4.79129C13.0703 4.99138 12.9857 5.16434 12.8263 5.31016L6.35277 11.1971C6.14315 11.3877 6.0319 11.6186 6.01903 11.8898C6.00616 12.1611 6.09506 12.401 6.28572 12.6097C6.47635 12.8193 6.70727 12.9305 6.9785 12.9434C7.24972 12.9563 7.48967 12.8674 7.69835 12.6767L14.7268 6.28524C15.2447 5.81428 15.5198 5.23742 15.5522 4.55466C15.5846 3.87189 15.3653 3.27156 14.8944 2.75368C14.4234 2.23579 13.8466 1.96065 13.1638 1.92824C12.481 1.89584 11.8807 2.11511 11.3628 2.58606L3.59457 9.65034C2.78075 10.3904 2.34758 11.3137 2.29506 12.4203C2.24254 13.5268 2.58632 14.487 3.32639 15.3008C4.06645 16.1147 4.98976 16.5478 6.09632 16.6003C7.20287 16.6529 8.16306 16.3091 8.97688 15.569L16.1903 9.00933C16.3506 8.86356 16.5308 8.79566 16.7309 8.80563C16.931 8.8156 17.1039 8.90026 17.2497 9.05962C17.3955 9.21991 17.4634 9.40011 17.4534 9.60021C17.4435 9.80031 17.3588 9.97327 17.1994 10.1191L9.98606 16.6788C8.85165 17.7104 7.53104 18.1904 6.02425 18.1189C4.51745 18.0474 3.24824 17.4444 2.21663 16.31Z" fill="#A4A4A9"/>
</svg>
