<svg width="14" height="14" viewBox="0 0 14 14" fill="none" xmlns="http://www.w3.org/2000/svg">
<path d="M3.34829 9.33268C3.41246 9.04685 3.29579 8.63852 3.09163 8.43435L1.67413 7.01685C1.23079 6.57352 1.05579 6.10102 1.18413 5.69268C1.31829 5.28435 1.73246 5.00435 2.35079 4.89935L4.17079 4.59602C4.43329 4.54935 4.75413 4.31602 4.87663 4.07685L5.87996 2.06435C6.17163 1.48685 6.56829 1.16602 6.99996 1.16602C7.43163 1.16602 7.82829 1.48685 8.11996 2.06435L9.12329 4.07685C9.19913 4.22852 9.35663 4.37435 9.52579 4.47352L3.24329 10.756C3.16163 10.8377 3.02163 10.7618 3.04496 10.6452L3.34829 9.33268Z" fill="currentColor"/>
<path d="M10.9083 8.43413C10.6983 8.64413 10.5816 9.04663 10.6516 9.33246L11.0541 11.0883C11.2233 11.8175 11.1183 12.3658 10.7566 12.6283C10.6108 12.7333 10.4358 12.7858 10.2316 12.7858C9.93413 12.7858 9.58413 12.675 9.19913 12.4475L7.48997 11.4325C7.22163 11.275 6.7783 11.275 6.50997 11.4325L4.8008 12.4475C4.1533 12.8266 3.59913 12.8908 3.2433 12.6283C3.10913 12.5291 3.00997 12.395 2.9458 12.22L10.0391 5.12663C10.3075 4.85829 10.6866 4.73579 11.0541 4.79996L11.6433 4.89913C12.2616 5.00413 12.6758 5.28413 12.81 5.69246C12.9383 6.10079 12.7633 6.57329 12.32 7.01663L10.9083 8.43413Z" fill="currentColor"/>
</svg>
