<svg width="13" height="13" viewBox="0 0 13 13" fill="none" xmlns="http://www.w3.org/2000/svg">
<path d="M3.37005 8.5C3.42505 8.255 3.32505 7.905 3.15005 7.73L1.93505 6.515C1.55505 6.135 1.40505 5.73 1.51505 5.38C1.63005 5.03 1.98505 4.79 2.51505 4.7L4.07505 4.44C4.30005 4.4 4.57505 4.2 4.68005 3.995L5.54005 2.27C5.79005 1.775 6.13005 1.5 6.50005 1.5C6.87005 1.5 7.21005 1.775 7.46005 2.27L8.32005 3.995C8.38505 4.125 8.52005 4.25 8.66505 4.335L3.28005 9.72C3.21005 9.79 3.09005 9.725 3.11005 9.625L3.37005 8.5Z" fill="#E5A325"/>
<path d="M9.85002 7.73093C9.67002 7.91093 9.57002 8.25593 9.63002 8.50093L9.97502 10.0059C10.12 10.6309 10.03 11.1009 9.72002 11.3259C9.59502 11.4159 9.44502 11.4609 9.27002 11.4609C9.01502 11.4609 8.71502 11.3659 8.38502 11.1709L6.92002 10.3009C6.69002 10.1659 6.31002 10.1659 6.08002 10.3009L4.61502 11.1709C4.06002 11.4959 3.58502 11.5509 3.28002 11.3259C3.16502 11.2409 3.08002 11.1259 3.02502 10.9759L9.10502 4.89593C9.33502 4.66593 9.66002 4.56093 9.97502 4.61593L10.48 4.70093C11.01 4.79093 11.365 5.03093 11.48 5.38093C11.59 5.73093 11.44 6.13593 11.06 6.51593L9.85002 7.73093Z" fill="#E5A325"/>
</svg>
