<svg xmlns="http://www.w3.org/2000/svg" width="19" height="19" viewBox="0 0 512 512" version="1.1"><path d="M 138.302 98.302 C 129.468 107.137, 128 109.067, 128 111.848 C 128 118.735, 135.818 122.291, 141.365 117.927 L 144 115.855 144 163.473 L 144 211.091 146.455 213.545 C 148.002 215.093, 150.052 216, 152 216 C 153.948 216, 155.998 215.093, 157.545 213.545 L 160 211.091 160 152 L 160 92.909 157.545 90.455 C 155.949 88.858, 153.958 88, 151.848 88 C 149.067 88, 147.137 89.468, 138.302 98.302 M 350.618 89.048 C 344.290 90.638, 335.284 95.968, 330.912 100.711 C 325.302 106.798, 321.096 116.165, 320.340 124.258 C 319.768 130.386, 319.899 130.989, 322.318 133.409 C 327.447 138.538, 336 135.101, 336 127.911 C 336 121.710, 338.310 116.623, 343.466 111.466 C 353.701 101.231, 367.824 101.449, 377.299 111.988 C 386.043 121.713, 386.256 133.883, 377.850 143.433 C 372.833 149.133, 368.344 151.112, 358.074 152.153 C 342.126 153.770, 330.945 161.261, 324.244 174.821 C 320.554 182.287, 320.515 182.496, 320.150 196.616 C 319.783 210.804, 319.793 210.884, 322.345 213.436 L 324.909 216 360 216 L 395.091 216 397.545 213.545 C 400.793 210.298, 400.793 205.702, 397.545 202.455 L 395.091 200 365.545 200 L 336 200 336 194.366 C 336 186.557, 337.708 181.613, 342.150 176.567 C 347.167 170.867, 351.656 168.888, 361.926 167.847 C 377.882 166.229, 389.054 158.740, 395.765 145.160 C 399.294 138.020, 399.500 137.075, 399.500 128 C 399.500 118.925, 399.294 117.980, 395.765 110.840 C 389.008 97.167, 377.003 89.144, 362.249 88.442 C 357.987 88.239, 352.753 88.512, 350.618 89.048 M 138.929 297.307 C 124.283 301.451, 113.752 314.139, 112.331 329.356 C 111.590 337.297, 112.996 341.341, 117.086 343.036 C 119.345 343.971, 120.646 343.975, 122.870 343.054 C 126.407 341.589, 128 338.287, 128 332.421 C 128 324.070, 132.237 317.242, 139.500 313.890 C 145.049 311.329, 158.914 311.323, 164.541 313.880 C 179.386 320.623, 179.715 341.954, 165.093 349.673 C 161.446 351.599, 159.168 352, 151.890 352 C 147.052 352, 141.978 352.508, 140.615 353.130 C 135.061 355.660, 135.061 364.340, 140.615 366.870 C 141.978 367.492, 147.010 368.010, 151.797 368.022 C 158.068 368.038, 161.629 368.557, 164.541 369.880 C 179.386 376.623, 179.715 397.954, 165.093 405.673 C 161.458 407.592, 159.163 408, 152 408 C 144.837 408, 142.542 407.592, 138.907 405.673 C 132.558 402.321, 128.769 396.487, 128.266 389.285 C 127.720 381.480, 126.382 378.401, 122.914 376.964 C 117.067 374.543, 112 378.969, 112 386.498 C 112 399.661, 119.039 412.422, 129.769 418.710 C 138.355 423.742, 152.564 425.366, 164.147 422.640 C 190.575 416.419, 200.658 384.230, 182.481 364.110 L 178.767 360 182.340 356.045 C 198.522 338.134, 193.102 310.560, 171.288 299.821 C 165.464 296.954, 163.788 296.612, 154.166 296.328 C 147.515 296.132, 141.780 296.500, 138.929 297.307 M 371.237 297.750 C 368.014 300.593, 312.715 380.286, 312.206 382.822 C 311.596 385.860, 313.603 389.498, 316.657 390.890 C 318.231 391.607, 327.753 392, 343.547 392 L 368 392 368 404.453 C 368 418.250, 368.834 421.274, 373.130 423.054 C 376.816 424.581, 381.267 422.905, 382.870 419.385 C 383.517 417.967, 384 411.578, 384 404.453 L 384 392 388.566 392 C 395.771 392, 399.908 388.990, 399.968 383.705 C 399.987 382.038, 399.009 379.918, 397.545 378.455 C 395.530 376.439, 394.100 376, 389.545 376 L 384 376 384 338.455 L 384 300.909 381.545 298.455 C 378.632 295.541, 374.094 295.230, 371.237 297.750 M 351.696 352.425 C 343.063 364.759, 336 375.109, 336 375.425 C 336 375.741, 343.200 376, 352 376 L 368 376 368 353 C 368 340.350, 367.863 330, 367.696 330 C 367.529 330, 360.329 340.091, 351.696 352.425" stroke="none" fill="#f0f0f0" fill-rule="evenodd"/><path d="M 357.757 344.750 C 352.477 352.313, 345.374 362.472, 341.975 367.326 C 335.924 375.966, 335.851 376.146, 338.560 375.826 C 340.895 375.551, 343.412 372.529, 354.659 356.500 C 365.121 341.591, 367.992 336.800, 367.996 334.250 C 367.998 332.462, 367.855 331, 367.679 331 C 367.502 331, 363.037 337.188, 357.757 344.750 M 312 392.045 C 312 393.946, 312.923 396.014, 314.455 397.545 L 316.909 400 342.455 400 L 368 400 368 396 L 368 392 342.122 392 C 320.340 392, 316.048 391.763, 315 390.500 C 313.065 388.168, 312 388.717, 312 392.045 M 397 390.500 C 396.152 391.522, 393.882 392, 389.878 392 L 384 392 384 396 L 384 400 389.545 400 C 394.100 400, 395.530 399.561, 397.545 397.545 C 399.077 396.014, 400 393.946, 400 392.045 C 400 388.717, 398.935 388.168, 397 390.500 M 368 423.371 C 368 425.987, 368.728 427.819, 370.455 429.545 C 375.680 434.771, 384 430.978, 384 423.371 L 384 419.651 381.686 421.826 C 380.254 423.170, 378.085 424, 376 424 C 373.915 424, 371.746 423.170, 370.314 421.826 L 368 419.651 368 423.371" stroke="none" fill="#00325a" fill-rule="evenodd"/><path d="M 142.115 313.501 C 134.032 316.022, 127.781 325.128, 128.090 333.932 C 128.172 336.254, 128.271 336.185, 129.129 333.211 C 130.492 328.485, 137.043 322.336, 142.197 320.944 C 144.573 320.302, 150.118 319.970, 154.577 320.202 C 164.305 320.709, 168.810 323.054, 173.121 329.852 C 176.318 334.892, 176.740 333.856, 174.527 326.404 C 173.640 323.417, 171.711 320.143, 169.674 318.169 C 163.789 312.465, 151.898 310.450, 142.115 313.501 M 112 343.371 C 112 345.987, 112.728 347.819, 114.455 349.545 C 119.680 354.771, 128 350.978, 128 343.371 L 128 339.651 125.686 341.826 C 124.254 343.170, 122.085 344, 120 344 C 117.915 344, 115.746 343.170, 114.314 341.826 L 112 339.651 112 343.371 M 190.990 341.083 C 190.972 343.678, 186.306 352.582, 182.976 356.374 C 179.999 359.765, 179.836 360.265, 181.249 361.677 C 182.106 362.535, 183.346 362.904, 184.003 362.498 C 187.249 360.492, 193.525 342.192, 191.620 340.287 C 191.279 339.946, 190.996 340.304, 190.990 341.083 M 136 367.889 C 136 369.478, 136.860 371.841, 137.910 373.139 C 139.659 375.300, 140.788 375.547, 151.219 376.050 C 164.576 376.695, 168.399 378.406, 173.121 385.852 C 176.300 390.865, 176.751 389.814, 174.554 382.512 C 171.521 372.434, 163.543 368, 148.441 368 C 142.376 368, 139.921 367.610, 139 366.500 C 137.091 364.199, 136 364.704, 136 367.889 M 112.459 400.419 C 113.753 412.012, 122.300 423.551, 133.390 428.676 C 139.063 431.298, 140.394 431.500, 152 431.500 C 163.606 431.500, 164.937 431.298, 170.610 428.676 C 181.687 423.557, 190.212 412.060, 191.563 400.419 L 192.134 395.500 189.670 401.270 C 185.104 411.965, 178.798 418.054, 168.145 422.055 C 163.236 423.898, 160.870 424.126, 150 423.802 C 138.753 423.468, 136.977 423.158, 132.287 420.717 C 122.936 415.850, 117.179 409.310, 113.305 399.156 L 111.911 395.500 112.459 400.419" stroke="none" fill="#a00028" fill-rule="evenodd"/><path d="M 141.595 117.883 C 139.315 120.417, 132.901 120.791, 131 118.500 C 129.065 116.168, 128 116.717, 128 120.045 C 128 126.861, 136.199 130.314, 141.519 125.738 C 143.667 123.889, 144.090 122.769, 143.825 119.620 L 143.500 115.765 141.595 117.883 M 144 215.371 C 144 217.987, 144.728 219.819, 146.455 221.545 C 151.680 226.771, 160 222.978, 160 215.371 L 160 211.651 157.686 213.826 C 156.254 215.170, 154.085 216, 152 216 C 149.915 216, 147.746 215.170, 146.314 213.826 L 144 211.651 144 215.371" stroke="none" fill="#0082aa" fill-rule="evenodd"/><path d="M 354.500 104.935 C 344.487 107.373, 337.850 115.113, 336.400 126.045 C 335.198 135.104, 328.793 138.772, 322.635 133.927 L 320 131.855 320 135.473 C 320 140.128, 323.632 144, 328 144 C 332.156 144, 336 140.114, 336 135.911 C 336 123.610, 347.653 112, 360 112 C 368.563 112, 377.872 118.068, 381.829 126.228 C 384.406 131.543, 384.704 128.732, 382.389 120.939 C 378.931 109.295, 366.319 102.058, 354.500 104.935 M 399 137.840 C 399 141.659, 392.855 151.847, 387.492 156.919 C 380.107 163.904, 373.281 166.885, 362.006 168.052 C 352.196 169.067, 347.100 171.092, 342.864 175.658 C 338.999 179.825, 337.178 184.005, 336.575 190.094 C 336.082 195.062, 336.131 195.234, 337.174 192.215 C 338.737 187.693, 345.181 180.617, 349.681 178.481 C 351.735 177.507, 357.259 176.328, 361.957 175.861 C 377.830 174.286, 389.787 166.152, 396.038 152.680 C 398.703 146.936, 401.057 136, 399.629 136 C 399.283 136, 399 136.828, 399 137.840 M 320 215.091 C 320 218.004, 320.667 219.758, 322.455 221.545 L 324.909 224 360 224 L 395.091 224 397.545 221.545 C 399.077 220.014, 400 217.946, 400 216.045 C 400 212.651, 399.396 212.386, 396.559 214.532 C 394.938 215.758, 388.861 216, 359.763 216 L 324.909 216 322.455 213.545 L 320 211.091 320 215.091" stroke="none" fill="#dc9600" fill-rule="evenodd"/><path d="M 72.218 273.653 C 70.413 274.548, 67.938 276.680, 66.718 278.390 L 64.500 281.500 64.500 360 C 64.500 436.939, 64.540 438.553, 66.500 441.182 C 67.600 442.658, 70.151 444.803, 72.168 445.950 C 75.812 448.022, 76.369 448.034, 153.168 447.768 C 227.983 447.509, 230.583 447.437, 233.057 445.557 C 234.463 444.488, 236.488 442.463, 237.557 441.057 C 239.437 438.583, 239.509 435.983, 239.768 361.168 C 240.034 284.369, 240.022 283.812, 237.950 280.168 C 236.803 278.151, 234.658 275.600, 233.182 274.500 C 230.561 272.545, 228.747 272.495, 153 272.263 C 83.123 272.049, 75.177 272.186, 72.218 273.653 M 136.336 297.799 C 126.161 301.415, 116.440 311.413, 113.512 321.273 C 112.578 324.417, 112.043 330.216, 112.083 336.768 C 112.142 346.419, 112.334 347.425, 114.528 349.619 C 119.959 355.050, 128.259 350.787, 127.905 342.749 C 127.609 336.027, 129.689 330.311, 134 326 C 138.907 321.093, 144.045 319.654, 154.674 320.208 C 164.503 320.720, 169.384 323.387, 173.574 330.535 L 176.258 335.115 173.371 340.759 C 170.972 345.451, 169.581 346.876, 165.128 349.202 C 160.366 351.690, 158.726 352, 150.340 352 C 141.756 352, 140.697 352.212, 138.543 354.366 C 136.497 356.412, 136.176 357.698, 136.176 363.864 C 136.176 374.696, 137.007 375.364, 151.316 376.055 C 161.596 376.551, 163.238 376.892, 166.850 379.282 C 169.072 380.752, 172.097 384.016, 173.574 386.535 L 176.258 391.115 173.371 396.759 C 170.972 401.451, 169.581 402.876, 165.128 405.202 C 160.601 407.567, 158.568 408, 152 408 C 145.441 408, 143.396 407.565, 138.899 405.216 C 132.021 401.623, 128 394.659, 128 386.340 C 128 381.907, 127.549 380.458, 125.545 378.455 C 122.260 375.169, 117.703 375.206, 114.364 378.545 C 111.875 381.034, 111.828 381.344, 112.214 392.795 C 112.557 402.945, 112.977 405.312, 115.379 410.610 C 118.841 418.251, 125.631 425.029, 133.500 428.700 C 139.065 431.297, 140.406 431.500, 152 431.500 C 163.594 431.500, 164.935 431.297, 170.500 428.700 C 178.310 425.056, 185.142 418.257, 188.676 410.610 C 191.328 404.873, 191.497 403.707, 191.453 391.500 C 191.401 377.362, 190.212 372.970, 184.640 366.349 C 182.445 363.741, 182.262 363.114, 183.547 362.620 C 184.397 362.294, 186.534 358.984, 188.296 355.264 C 191.390 348.732, 191.500 348.054, 191.500 335.500 C 191.500 323.373, 191.317 322.128, 188.778 316.962 C 185.302 309.892, 178.097 302.687, 171.033 299.218 C 166.087 296.788, 164.227 296.472, 153.500 296.232 C 143.902 296.018, 140.466 296.332, 136.336 297.799" stroke="none" fill="#c80a50" fill-rule="evenodd"/><path d="M 280.218 273.653 C 278.413 274.548, 275.938 276.680, 274.718 278.390 L 272.500 281.500 272.500 360 C 272.500 436.939, 272.540 438.553, 274.500 441.182 C 275.600 442.658, 278.151 444.803, 280.168 445.950 C 283.812 448.022, 284.369 448.034, 361.168 447.768 C 435.983 447.509, 438.583 447.437, 441.057 445.557 C 442.463 444.488, 444.488 442.463, 445.557 441.057 C 447.437 438.583, 447.509 435.983, 447.768 361.168 C 448.034 284.369, 448.022 283.812, 445.950 280.168 C 444.803 278.151, 442.658 275.600, 441.182 274.500 C 438.561 272.545, 436.747 272.495, 361 272.263 C 291.123 272.049, 283.177 272.186, 280.218 273.653 M 371.784 297.061 C 370.459 297.834, 329.463 355.448, 314.718 377.260 C 312.586 380.414, 312.176 382.166, 312.176 388.143 C 312.176 394.302, 312.497 395.588, 314.543 397.634 C 316.908 399.999, 316.924 400, 342.455 400 L 368 400 368.097 409.750 C 368.150 415.113, 368.117 421.174, 368.023 423.221 C 367.670 430.885, 376.258 434.833, 381.620 429.471 C 383.517 427.573, 384.106 426.013, 383.977 423.221 C 383.883 421.174, 383.850 415.113, 383.903 409.750 L 384 400 389.545 400 C 394.044 400, 395.538 399.553, 397.457 397.634 C 399.511 395.579, 399.824 394.309, 399.824 388 C 399.824 381.691, 399.511 380.421, 397.457 378.366 C 395.538 376.447, 394.044 376, 389.545 376 L 384 376 384 338.455 L 384 300.909 381.545 298.455 C 378.972 295.881, 374.825 295.289, 371.784 297.061 M 354.409 356.821 L 341.318 375.500 354.296 375.780 C 361.433 375.934, 367.447 375.886, 367.659 375.674 C 367.872 375.462, 367.923 366.930, 367.773 356.715 L 367.500 338.142 354.409 356.821" stroke="none" fill="#0a5078" fill-rule="evenodd"/><path d="M 72.218 65.653 C 70.413 66.548, 67.938 68.680, 66.718 70.390 L 64.500 73.500 64.500 152 C 64.500 228.939, 64.540 230.553, 66.500 233.182 C 67.600 234.658, 70.151 236.803, 72.168 237.950 C 75.812 240.022, 76.369 240.034, 153.168 239.768 C 227.983 239.509, 230.583 239.437, 233.057 237.557 C 234.463 236.488, 236.488 234.463, 237.557 233.057 C 239.437 230.583, 239.509 227.983, 239.768 153.168 C 240.034 76.369, 240.022 75.812, 237.950 72.168 C 236.803 70.151, 234.658 67.600, 233.182 66.500 C 230.561 64.545, 228.747 64.495, 153 64.263 C 83.123 64.049, 75.177 64.186, 72.218 65.653 M 138.379 98.250 L 128.153 108.500 128.165 115.884 C 128.175 122.306, 128.485 123.575, 130.543 125.634 C 133.490 128.581, 137.842 128.699, 141.365 125.927 L 144 123.855 144.097 167.677 C 144.150 191.780, 144.117 213.174, 144.023 215.221 C 143.674 222.799, 152.254 226.837, 157.518 221.572 L 159.946 219.145 159.985 156.039 L 160.024 92.933 157.557 90.467 C 155.949 88.859, 153.962 88, 151.848 88 C 149.066 88, 147.149 89.459, 138.379 98.250" stroke="none" fill="#00a0c8" fill-rule="evenodd"/><path d="M 280.218 65.653 C 278.413 66.548, 275.938 68.680, 274.718 70.390 L 272.500 73.500 272.500 152 C 272.500 228.939, 272.540 230.553, 274.500 233.182 C 275.600 234.658, 278.151 236.803, 280.168 237.950 C 283.812 240.022, 284.369 240.034, 361.168 239.768 C 435.983 239.509, 438.583 239.437, 441.057 237.557 C 442.463 236.488, 444.488 234.463, 445.557 233.057 C 447.437 230.583, 447.509 227.983, 447.768 153.168 C 448.034 76.369, 448.022 75.812, 445.950 72.168 C 444.803 70.151, 442.658 67.600, 441.182 66.500 C 438.561 64.545, 436.747 64.495, 361 64.263 C 291.123 64.049, 283.177 64.186, 280.218 65.653 M 350.618 89.048 C 344.290 90.638, 335.284 95.968, 330.912 100.711 C 328.667 103.147, 325.444 108.101, 323.751 111.719 C 321.080 117.426, 320.620 119.664, 320.274 128.631 C 319.890 138.593, 319.966 139.057, 322.392 141.483 C 327.450 146.541, 336 143.041, 336 135.911 C 336 123.610, 347.653 112, 360 112 C 368.711 112, 377.962 118.134, 381.907 126.525 C 383.802 130.558, 383.913 131.560, 382.850 135.105 C 381.340 140.148, 375.210 147.198, 370.319 149.519 C 368.265 150.493, 362.755 151.679, 358.074 152.153 C 342.120 153.770, 330.948 161.260, 324.235 174.836 L 320.500 182.390 320.155 200.646 L 319.811 218.902 322.360 221.451 L 324.909 224 360 224 L 395.091 224 397.457 221.634 C 399.511 219.579, 399.824 218.309, 399.824 212 C 399.824 205.691, 399.511 204.421, 397.457 202.366 L 395.091 200 365.545 200 C 332.571 200, 334.848 200.577, 337.176 192.807 C 338.663 187.842, 344.822 180.787, 349.681 178.481 C 351.735 177.507, 357.245 176.321, 361.926 175.847 C 377.882 174.229, 389.054 166.740, 395.765 153.161 L 399.500 145.605 399.500 132.002 L 399.500 118.398 395.765 110.841 C 389.008 97.167, 377.004 89.144, 362.249 88.442 C 357.987 88.239, 352.753 88.512, 350.618 89.048" stroke="none" fill="#fab400" fill-rule="evenodd"/></svg>