<svg width="16" height="17" viewBox="0 0 16 17" fill="none" xmlns="http://www.w3.org/2000/svg">
<path d="M14.875 2.75H1.125C0.95924 2.75 0.800269 2.81585 0.683058 2.93306C0.565848 3.05027 0.5 3.20924 0.5 3.375C0.5 3.54076 0.565848 3.69973 0.683058 3.81694C0.800269 3.93415 0.95924 4 1.125 4H1.75V15.25C1.75 15.5815 1.8817 15.8995 2.11612 16.1339C2.35054 16.3683 2.66848 16.5 3 16.5H13C13.3315 16.5 13.6495 16.3683 13.8839 16.1339C14.1183 15.8995 14.25 15.5815 14.25 15.25V4H14.875C15.0408 4 15.1997 3.93415 15.3169 3.81694C15.4342 3.69973 15.5 3.54076 15.5 3.375C15.5 3.20924 15.4342 3.05027 15.3169 2.93306C15.1997 2.81585 15.0408 2.75 14.875 2.75ZM13 15.25H3V4H13V15.25ZM4.25 0.875C4.25 0.70924 4.31585 0.550268 4.43306 0.433058C4.55027 0.315848 4.70924 0.25 4.875 0.25H11.125C11.2908 0.25 11.4497 0.315848 11.5669 0.433058C11.6842 0.550268 11.75 0.70924 11.75 0.875C11.75 1.04076 11.6842 1.19973 11.5669 1.31694C11.4497 1.43415 11.2908 1.5 11.125 1.5H4.875C4.70924 1.5 4.55027 1.43415 4.43306 1.31694C4.31585 1.19973 4.25 1.04076 4.25 0.875Z" fill="currentColor"/>
</svg>
