<svg width="9" height="13" viewBox="0 0 9 13" fill="none" xmlns="http://www.w3.org/2000/svg">
<path d="M4.49996 6.20964C4.11319 6.20964 3.74225 6.05599 3.46876 5.7825C3.19527 5.50901 3.04163 5.13808 3.04163 4.7513C3.04163 4.36453 3.19527 3.9936 3.46876 3.7201C3.74225 3.44661 4.11319 3.29297 4.49996 3.29297C4.88673 3.29297 5.25767 3.44661 5.53116 3.7201C5.80465 3.9936 5.95829 4.36453 5.95829 4.7513C5.95829 4.94281 5.92057 5.13245 5.84728 5.30938C5.774 5.48632 5.66658 5.64708 5.53116 5.7825C5.39574 5.91792 5.23497 6.02534 5.05804 6.09863C4.88111 6.17192 4.69147 6.20964 4.49996 6.20964ZM4.49996 0.667969C3.41699 0.667969 2.37838 1.09818 1.61261 1.86395C0.846833 2.62972 0.416626 3.66833 0.416626 4.7513C0.416626 7.8138 4.49996 12.3346 4.49996 12.3346C4.49996 12.3346 8.58329 7.8138 8.58329 4.7513C8.58329 3.66833 8.15309 2.62972 7.38731 1.86395C6.62154 1.09818 5.58293 0.667969 4.49996 0.667969Z" fill="#82828A"/>
</svg>
