<svg xmlns="http://www.w3.org/2000/svg" width="16" height="16" viewBox="0 0 512 512" version="1.1"><path d="M 417.305 268.034 C 398.540 270.686, 384.494 289.993, 387.906 308.447 C 390.049 320.042, 397.610 329.996, 408 334.903 C 412.755 337.148, 414.788 337.493, 423 337.450 C 430.541 337.410, 433.481 336.953, 437.259 335.232 C 443.863 332.223, 451.102 325.134, 454.573 318.278 C 457.195 313.098, 457.498 311.516, 457.499 303 C 457.500 294.698, 457.159 292.806, 454.795 287.993 C 451.506 281.295, 445.070 274.589, 438.945 271.478 C 434.922 269.434, 432.332 268.738, 424.500 267.592 C 423.400 267.431, 420.162 267.630, 417.305 268.034" stroke="none" fill="#ffffff" fill-rule="evenodd"/><path d="M 172.500 27.051 C 133.088 29.338, 100.085 33.598, 86.260 38.182 C 52.331 49.432, 23.827 80.052, 14.912 114.825 C 11.219 129.231, 2.054 202.031, 3.328 206.839 C 3.570 207.753, 3.820 206.884, 3.884 204.910 C 4.081 198.825, 7.833 185.988, 11.705 178.150 C 20.927 159.488, 36.404 144.452, 56.072 135.050 C 67.791 129.447, 77.419 127.257, 97.869 125.544 C 177.056 118.909, 308.716 118.237, 391.371 124.046 C 399.550 124.621, 406.384 124.950, 406.557 124.776 C 406.731 124.602, 405.805 118.674, 404.500 111.602 C 401.911 97.577, 397.787 87.468, 389.947 75.922 C 376.693 56.405, 355.276 40.266, 334.500 34.140 C 327.026 31.935, 311.582 29.758, 290.500 27.936 C 274.023 26.512, 192.343 25.899, 172.500 27.051 M 2.232 214 C 2.232 215.925, 2.438 216.713, 2.689 215.750 C 2.941 214.787, 2.941 213.213, 2.689 212.250 C 2.438 211.287, 2.232 212.075, 2.232 214" stroke="none" fill="#454565" fill-rule="evenodd"/><path d="M 195.500 121.088 C 149.181 122.523, 103.735 125.011, 86 127.085 C 74.758 128.399, 67.222 130.487, 57.381 135.013 C 45.823 140.329, 37.683 146.098, 28.500 155.480 C 13.018 171.298, 6.233 186.893, 3.568 212.787 C 0.107 246.404, -0.715 296.940, 1.612 333 C 2.642 348.958, 5.688 375.091, 6.620 375.967 C 8.360 377.602, 31.421 386.167, 43.256 389.574 C 57.702 393.732, 77.099 397.397, 93.426 399.054 C 108.643 400.598, 146.737 399.737, 160.424 397.539 C 203.128 390.682, 239.804 376.623, 273.526 354.184 C 313.903 327.316, 345.695 291.984, 367.548 249.691 C 386.278 213.442, 395.611 178.899, 398.572 134.878 L 399.219 125.256 392.859 124.632 C 356.718 121.086, 254.729 119.254, 195.500 121.088 M 458.232 303 C 458.232 304.925, 458.438 305.712, 458.689 304.750 C 458.941 303.788, 458.941 302.212, 458.689 301.250 C 458.438 300.288, 458.232 301.075, 458.232 303 M 447.437 328.250 L 444.500 331.500 447.750 328.563 C 449.538 326.948, 451 325.485, 451 325.313 C 451 324.540, 450.175 325.221, 447.437 328.250 M 420.750 338.706 C 421.988 338.944, 424.012 338.944, 425.250 338.706 C 426.488 338.467, 425.475 338.272, 423 338.272 C 420.525 338.272, 419.512 338.467, 420.750 338.706" stroke="none" fill="#48a4df" fill-rule="evenodd"/><path d="M 204.287 120.740 C 207.469 120.939, 212.419 120.937, 215.287 120.736 C 218.154 120.535, 215.550 120.372, 209.500 120.374 C 203.450 120.376, 201.104 120.541, 204.287 120.740 M 294.750 120.740 C 298.188 120.936, 303.813 120.936, 307.250 120.740 C 310.688 120.545, 307.875 120.385, 301 120.385 C 294.125 120.385, 291.313 120.545, 294.750 120.740 M 173.250 121.728 C 175.313 121.944, 178.688 121.944, 180.750 121.728 C 182.813 121.513, 181.125 121.336, 177 121.336 C 172.875 121.336, 171.188 121.513, 173.250 121.728 M 332.776 121.733 C 335.128 121.945, 338.728 121.942, 340.776 121.727 C 342.824 121.512, 340.900 121.339, 336.500 121.343 C 332.100 121.346, 330.424 121.522, 332.776 121.733 M 149.768 122.725 C 151.565 122.947, 154.265 122.943, 155.768 122.715 C 157.271 122.486, 155.800 122.304, 152.500 122.310 C 149.200 122.315, 147.971 122.502, 149.768 122.725 M 357.768 122.725 C 359.565 122.947, 362.265 122.943, 363.768 122.715 C 365.271 122.486, 363.800 122.304, 360.500 122.310 C 357.200 122.315, 355.971 122.502, 357.768 122.725 M 129.264 123.718 C 130.784 123.947, 133.034 123.941, 134.264 123.704 C 135.494 123.467, 134.250 123.279, 131.500 123.286 C 128.750 123.294, 127.744 123.488, 129.264 123.718 M 377.750 123.706 C 378.988 123.944, 381.012 123.944, 382.250 123.706 C 383.488 123.467, 382.475 123.272, 380 123.272 C 377.525 123.272, 376.512 123.467, 377.750 123.706 M 111.750 124.706 C 112.987 124.944, 115.013 124.944, 116.250 124.706 C 117.487 124.467, 116.475 124.272, 114 124.272 C 111.525 124.272, 110.513 124.467, 111.750 124.706 M 395.864 124.742 L 399.228 125.134 398.576 134.817 C 395.609 178.913, 386.287 213.423, 367.548 249.691 C 354.537 274.871, 338.835 296.476, 318.718 316.877 C 303.565 332.244, 291.376 342.306, 273.526 354.184 C 239.808 376.620, 203.211 390.650, 160.424 397.545 C 145.003 400.029, 106.759 400.610, 89.646 398.620 C 63.363 395.563, 39.956 389.748, 17.500 380.698 C 10.772 377.986, 6.397 376.699, 6.235 377.382 C 5.566 380.210, 11.078 406.339, 13.856 413.509 C 23.434 438.227, 45.363 460.471, 70.450 470.915 C 79.867 474.835, 93.798 477.525, 114.500 479.419 C 209.415 488.103, 304.219 488.109, 397.500 479.436 C 424.998 476.879, 435.036 474.553, 449.035 467.497 C 462.425 460.747, 476.671 448.615, 485.896 436.105 C 491.236 428.864, 497.802 416.319, 500.345 408.500 C 503.883 397.619, 508.932 359.597, 510.968 328.500 C 512.049 311.990, 512.434 245.023, 511.502 235.500 C 507.673 196.347, 507.084 192.896, 502.293 181.502 C 493.806 161.323, 473.532 141.693, 452.224 133.025 C 442.675 129.141, 434.142 127.216, 421.500 126.093 C 410.423 125.109, 389.602 124.012, 395.864 124.742 M 98.250 125.689 C 99.213 125.941, 100.787 125.941, 101.750 125.689 C 102.713 125.438, 101.925 125.232, 100 125.232 C 98.075 125.232, 97.287 125.438, 98.250 125.689 M 2.252 220.500 C 2.263 222.700, 2.468 223.482, 2.707 222.238 C 2.946 220.994, 2.937 219.194, 2.687 218.238 C 2.437 217.282, 2.241 218.300, 2.252 220.500 M 1.300 233 C 1.300 236.025, 1.487 237.262, 1.716 235.750 C 1.945 234.238, 1.945 231.762, 1.716 230.250 C 1.487 228.738, 1.300 229.975, 1.300 233 M 414.383 267.890 C 404.303 270.486, 395.049 278.127, 390.318 287.761 C 387.861 292.765, 387.500 294.653, 387.500 302.500 C 387.500 310.306, 387.882 312.327, 390.380 317.734 C 395.403 328.610, 404.946 335.835, 417.294 338.110 C 422.910 339.145, 424.855 339.076, 430.677 337.640 C 447.670 333.446, 458.496 319.685, 458.320 302.500 C 458.125 283.413, 443.551 268.185, 424.720 267.392 C 420.749 267.224, 416.097 267.449, 414.383 267.890" stroke="none" fill="#4193d2" fill-rule="evenodd"/></svg>